Rubik-Black.ufo
<glyph name="quotedbl" format="2">
  <advance width="519"/>
  <unicode hex="0022"/>
  <guideline y="408"/>
  <guideline y="458"/>
  <guideline x="286"/>
  <guideline x="237"/>
  <outline>
    <contour>
      <point x="346" y="408" type="curve" smooth="yes"/>
      <point x="428" y="408" type="line" smooth="yes"/>
      <point x="454" y="408"/>
      <point x="461" y="424"/>
      <point x="463" y="440" type="curve" smooth="yes"/>
      <point x="490" y="674" type="line" smooth="yes"/>
      <point x="493" y="696"/>
      <point x="482" y="710"/>
      <point x="463" y="710" type="curve" smooth="yes"/>
      <point x="311" y="710" type="line" smooth="yes"/>
      <point x="292" y="710"/>
      <point x="281" y="696"/>
      <point x="284" y="674" type="curve" smooth="yes"/>
      <point x="311" y="440" type="line" smooth="yes"/>
      <point x="313" y="424"/>
      <point x="320" y="408"/>
    </contour>
    <contour>
      <point x="91" y="408" type="curve" smooth="yes"/>
      <point x="173" y="408" type="line" smooth="yes"/>
      <point x="199" y="408"/>
      <point x="206" y="424"/>
      <point x="208" y="440" type="curve" smooth="yes"/>
      <point x="235" y="674" type="line" smooth="yes"/>
      <point x="238" y="696"/>
      <point x="227" y="710"/>
      <point x="208" y="710" type="curve" smooth="yes"/>
      <point x="56" y="710" type="line" smooth="yes"/>
      <point x="37" y="710"/>
      <point x="26" y="696"/>
      <point x="29" y="674" type="curve" smooth="yes"/>
      <point x="56" y="440" type="line" smooth="yes"/>
      <point x="58" y="424"/>
      <point x="65" y="408"/>
    </contour>
  </outline>
</glyph>
<glyph name="quotesingle" format="2">
  <advance width="264"/>
  <unicode hex="0027"/>
  <guideline y="688"/>
  <guideline y="408"/>
  <outline>
    <contour>
      <point x="91" y="408" type="curve" smooth="yes"/>
      <point x="173" y="408" type="line" smooth="yes"/>
      <point x="199" y="408"/>
      <point x="206" y="424"/>
      <point x="208" y="440" type="curve" smooth="yes"/>
      <point x="235" y="674" type="line" smooth="yes"/>
      <point x="238" y="696"/>
      <point x="227" y="710"/>
      <point x="208" y="710" type="curve" smooth="yes"/>
      <point x="56" y="710" type="line" smooth="yes"/>
      <point x="37" y="710"/>
      <point x="26" y="696"/>
      <point x="29" y="674" type="curve" smooth="yes"/>
      <point x="56" y="440" type="line" smooth="yes"/>
      <point x="58" y="424"/>
      <point x="65" y="408"/>
    </contour>
  </outline>
</glyph>
<glyph name="parenleft" format="2">
  <advance width="423"/>
  <unicode hex="0028"/>
  <guideline y="595"/>
  <guideline y="191"/>
  <guideline x="422"/>
  <outline>
    <contour>
      <point x="374" y="-159" type="curve" smooth="yes"/>
      <point x="389" y="-159"/>
      <point x="401" y="-147"/>
      <point x="401" y="-132" type="curve" smooth="yes"/>
      <point x="401" y="-5" type="line" smooth="yes"/>
      <point x="401" y="10"/>
      <point x="389" y="21"/>
      <point x="374" y="22" type="curve" smooth="yes"/>
      <point x="266" y="32"/>
      <point x="240" y="165"/>
      <point x="240" y="309" type="curve" smooth="yes"/>
      <point x="240" y="453"/>
      <point x="266" y="585"/>
      <point x="374" y="595" type="curve" smooth="yes"/>
      <point x="389" y="596"/>
      <point x="401" y="607"/>
      <point x="401" y="622" type="curve" smooth="yes"/>
      <point x="401" y="749" type="line" smooth="yes"/>
      <point x="401" y="764"/>
      <point x="389" y="776"/>
      <point x="374" y="776" type="curve" smooth="yes"/>
      <point x="182" y="776"/>
      <point x="29" y="649"/>
      <point x="29" y="309" type="curve" smooth="yes"/>
      <point x="29" y="-31"/>
      <point x="182" y="-159"/>
    </contour>
  </outline>
</glyph>
<glyph name="period" format="2">
  <advance width="312"/>
  <unicode hex="002E"/>
  <guideline y="-75"/>
  <outline>
    <contour>
      <point x="69" y="0" type="curve" smooth="yes"/>
      <point x="243" y="0" type="line" smooth="yes"/>
      <point x="258" y="0"/>
      <point x="270" y="12"/>
      <point x="270" y="27" type="curve" smooth="yes"/>
      <point x="270" y="201" type="line" smooth="yes"/>
      <point x="270" y="216"/>
      <point x="258" y="228"/>
      <point x="243" y="228" type="curve" smooth="yes"/>
      <point x="69" y="228" type="line" smooth="yes"/>
      <point x="54" y="228"/>
      <point x="42" y="216"/>
      <point x="42" y="201" type="curve" smooth="yes"/>
      <point x="42" y="27" type="line" smooth="yes"/>
      <point x="42" y="12"/>
      <point x="54" y="0"/>
    </contour>
  </outline>
</glyph>
<glyph name="zero" format="2">
  <advance width="718"/>
  <unicode hex="0030"/>
  <guideline y="251"/>
  <outline>
    <contour>
      <point x="358" y="-10" type="curve"/>
      <point x="559" y="-9"/>
      <point x="661" y="99"/>
      <point x="672" y="246" type="curve" smooth="yes"/>
      <point x="676" y="300"/>
      <point x="676" y="401"/>
      <point x="672" y="458" type="curve" smooth="yes"/>
      <point x="662" y="604"/>
      <point x="549" y="709"/>
      <point x="358" y="710" type="curve"/>
      <point x="167" y="709"/>
      <point x="54" y="604"/>
      <point x="44" y="458" type="curve" smooth="yes"/>
      <point x="40" y="401"/>
      <point x="40" y="300"/>
      <point x="44" y="246" type="curve" smooth="yes"/>
      <point x="55" y="99"/>
      <point x="157" y="-9"/>
    </contour>
    <contour>
      <point x="358" y="186" type="curve" smooth="yes"/>
      <point x="320" y="186"/>
      <point x="306" y="214"/>
      <point x="304" y="251" type="curve" smooth="yes"/>
      <point x="301" y="308"/>
      <point x="301" y="397"/>
      <point x="304" y="452" type="curve" smooth="yes"/>
      <point x="306" y="486"/>
      <point x="318" y="516"/>
      <point x="358" y="517" type="curve"/>
      <point x="398" y="516"/>
      <point x="410" y="486"/>
      <point x="412" y="452" type="curve" smooth="yes"/>
      <point x="415" y="397"/>
      <point x="415" y="308"/>
      <point x="412" y="251" type="curve" smooth="yes"/>
      <point x="410" y="214"/>
      <point x="396" y="186"/>
    </contour>
  </outline>
</glyph>
<glyph name="colon" format="2">
  <advance width="322"/>
  <unicode hex="003A"/>
  <guideline y="568"/>
  <outline>
    <contour>
      <point x="74" y="350" type="curve" smooth="yes"/>
      <point x="248" y="350" type="line" smooth="yes"/>
      <point x="263" y="350"/>
      <point x="275" y="362"/>
      <point x="275" y="377" type="curve" smooth="yes"/>
      <point x="275" y="541" type="line" smooth="yes"/>
      <point x="275" y="556"/>
      <point x="263" y="568"/>
      <point x="248" y="568" type="curve" smooth="yes"/>
      <point x="74" y="568" type="line" smooth="yes"/>
      <point x="59" y="568"/>
      <point x="47" y="556"/>
      <point x="47" y="541" type="curve" smooth="yes"/>
      <point x="47" y="377" type="line" smooth="yes"/>
      <point x="47" y="362"/>
      <point x="59" y="350"/>
    </contour>
    <contour>
      <point x="74" y="0" type="curve" smooth="yes"/>
      <point x="248" y="0" type="line" smooth="yes"/>
      <point x="263" y="0"/>
      <point x="275" y="12"/>
      <point x="275" y="27" type="curve" smooth="yes"/>
      <point x="275" y="191" type="line" smooth="yes"/>
      <point x="275" y="206"/>
      <point x="263" y="218"/>
      <point x="248" y="218" type="curve" smooth="yes"/>
      <point x="74" y="218" type="line" smooth="yes"/>
      <point x="59" y="218"/>
      <point x="47" y="206"/>
      <point x="47" y="191" type="curve" smooth="yes"/>
      <point x="47" y="27" type="line" smooth="yes"/>
      <point x="47" y="12"/>
      <point x="59" y="0"/>
    </contour>
  </outline>
</glyph>
<glyph name="semicolon" format="2">
  <advance width="325"/>
  <unicode hex="003B"/>
  <guideline y="-75"/>
  <outline>
    <contour>
      <point x="41" y="-75" type="curve" smooth="yes"/>
      <point x="142" y="-75" type="line" smooth="yes"/>
      <point x="168" y="-75"/>
      <point x="180" y="-56"/>
      <point x="185" y="-43" type="curve" smooth="yes"/>
      <point x="280" y="199" type="line" smooth="yes"/>
      <point x="281" y="202"/>
      <point x="281" y="204"/>
      <point x="281" y="206" type="curve" smooth="yes"/>
      <point x="281" y="218"/>
      <point x="271" y="228"/>
      <point x="259" y="228" type="curve" smooth="yes"/>
      <point x="99" y="228" type="line" smooth="yes"/>
      <point x="72" y="228"/>
      <point x="59" y="207"/>
      <point x="56" y="189" type="curve"/>
      <point x="19" y="-53" type="line"/>
      <point x="19" y="-65"/>
      <point x="29" y="-75"/>
    </contour>
    <contour>
      <point x="88" y="350" type="curve" smooth="yes"/>
      <point x="262" y="350" type="line" smooth="yes"/>
      <point x="277" y="350"/>
      <point x="289" y="362"/>
      <point x="289" y="377" type="curve" smooth="yes"/>
      <point x="289" y="541" type="line" smooth="yes"/>
      <point x="289" y="556"/>
      <point x="277" y="568"/>
      <point x="262" y="568" type="curve" smooth="yes"/>
      <point x="88" y="568" type="line" smooth="yes"/>
      <point x="73" y="568"/>
      <point x="61" y="556"/>
      <point x="61" y="541" type="curve" smooth="yes"/>
      <point x="61" y="377" type="line" smooth="yes"/>
      <point x="61" y="362"/>
      <point x="73" y="350"/>
    </contour>
  </outline>
</glyph>
<glyph name="less" format="2">
  <advance width="538"/>
  <unicode hex="003C"/>
  <outline>
    <contour>
      <point x="464" y="14" type="curve" smooth="yes"/>
      <point x="476" y="14"/>
      <point x="485" y="23"/>
      <point x="485" y="35" type="curve" smooth="yes"/>
      <point x="485" y="197" type="line" smooth="yes"/>
      <point x="485" y="223"/>
      <point x="465" y="233"/>
      <point x="453" y="240" type="curve" smooth="yes"/>
      <point x="278" y="350" type="line"/>
      <point x="453" y="459" type="line" smooth="yes"/>
      <point x="465" y="466"/>
      <point x="485" y="477"/>
      <point x="485" y="503" type="curve" smooth="yes"/>
      <point x="485" y="665" type="line" smooth="yes"/>
      <point x="485" y="677"/>
      <point x="476" y="686"/>
      <point x="464" y="686" type="curve" smooth="yes"/>
      <point x="462" y="686"/>
      <point x="458" y="686"/>
      <point x="453" y="683" type="curve" smooth="yes"/>
      <point x="53" y="413" type="line" smooth="yes"/>
      <point x="35" y="401"/>
      <point x="24" y="392"/>
      <point x="24" y="371" type="curve" smooth="yes"/>
      <point x="24" y="329" type="line" smooth="yes"/>
      <point x="24" y="308"/>
      <point x="35" y="299"/>
      <point x="53" y="287" type="curve" smooth="yes"/>
      <point x="453" y="17" type="line" smooth="yes"/>
      <point x="458" y="14"/>
      <point x="462" y="14"/>
    </contour>
  </outline>
</glyph>
<glyph name="question" format="2">
  <advance width="653"/>
  <unicode hex="003F"/>
  <guideline y="710"/>
  <outline>
    <contour>
      <point x="226" y="253" type="curve" smooth="yes"/>
      <point x="440" y="253" type="line" smooth="yes"/>
      <point x="457" y="253"/>
      <point x="462" y="262"/>
      <point x="476" y="282" type="curve" smooth="yes"/>
      <point x="479" y="287"/>
      <point x="483" y="291"/>
      <point x="487" y="296" type="curve" smooth="yes"/>
      <point x="537" y="357"/>
      <point x="628" y="416"/>
      <point x="628" y="523" type="curve" smooth="yes"/>
      <point x="628" y="587"/>
      <point x="578" y="710"/>
      <point x="347" y="710" type="curve" smooth="yes"/>
      <point x="125" y="710"/>
      <point x="27" y="585"/>
      <point x="24" y="484" type="curve" smooth="yes"/>
      <point x="24" y="465"/>
      <point x="35" y="453"/>
      <point x="49" y="453" type="curve" smooth="yes"/>
      <point x="235" y="453" type="line" smooth="yes"/>
      <point x="257" y="453"/>
      <point x="264" y="465"/>
      <point x="271" y="478" type="curve" smooth="yes"/>
      <point x="280" y="495"/>
      <point x="289" y="515"/>
      <point x="329" y="515" type="curve" smooth="yes"/>
      <point x="349" y="515"/>
      <point x="363" y="503"/>
      <point x="363" y="483" type="curve" smooth="yes"/>
      <point x="363" y="435"/>
      <point x="237" y="372"/>
      <point x="208" y="279" type="curve" smooth="yes"/>
      <point x="207" y="276"/>
      <point x="207" y="274"/>
      <point x="207" y="271" type="curve" smooth="yes"/>
      <point x="207" y="262"/>
      <point x="216" y="253"/>
    </contour>
    <contour>
      <point x="236" y="0" type="curve" smooth="yes"/>
      <point x="419" y="0" type="line" smooth="yes"/>
      <point x="434" y="0"/>
      <point x="446" y="12"/>
      <point x="446" y="27" type="curve" smooth="yes"/>
      <point x="446" y="186" type="line" smooth="yes"/>
      <point x="446" y="201"/>
      <point x="434" y="213"/>
      <point x="419" y="213" type="curve" smooth="yes"/>
      <point x="236" y="213" type="line"/>
      <point x="221" y="213"/>
      <point x="209" y="201"/>
      <point x="209" y="186" type="curve" smooth="yes"/>
      <point x="209" y="27" type="line" smooth="yes"/>
      <point x="209" y="12"/>
      <point x="221" y="0"/>
    </contour>
  </outline>
</glyph>
<glyph name="D" format="2">
  <advance width="740"/>
  <unicode hex="0044"/>
  <guideline x="380"/>
  <outline>
    <contour>
      <point x="82" y="0" type="curve" smooth="yes"/>
      <point x="375" y="0" type="line" smooth="yes"/>
      <point x="566" y="0"/>
      <point x="696" y="87"/>
      <point x="704" y="276" type="curve" smooth="yes"/>
      <point x="706" y="330"/>
      <point x="706" y="368"/>
      <point x="704" y="425" type="curve" smooth="yes"/>
      <point x="697" y="604"/>
      <point x="557" y="700"/>
      <point x="370" y="700" type="curve"/>
      <point x="82" y="700" type="line" smooth="yes"/>
      <point x="67" y="700"/>
      <point x="55" y="688"/>
      <point x="55" y="673" type="curve" smooth="yes"/>
      <point x="55" y="27" type="line" smooth="yes"/>
      <point x="55" y="12"/>
      <point x="67" y="0"/>
    </contour>
    <contour>
      <point x="305" y="195" type="line"/>
      <point x="305" y="505" type="line"/>
      <point x="365" y="505" type="line" smooth="yes"/>
      <point x="410" y="505"/>
      <point x="447" y="481"/>
      <point x="450" y="425" type="curve" smooth="yes"/>
      <point x="453" y="370"/>
      <point x="453" y="333"/>
      <point x="450" y="276" type="curve" smooth="yes"/>
      <point x="447" y="220"/>
      <point x="414" y="195"/>
      <point x="370" y="195" type="curve" smooth="yes"/>
    </contour>
  </outline>
</glyph>
<glyph name="E" format="2">
  <advance width="667"/>
  <unicode hex="0045"/>
  <guideline y="350"/>
  <anchor x="334" y="0" name="bottom"/>
  <anchor x="600" y="10" name="ogonek"/>
  <anchor x="334" y="700" name="top"/>
  <anchor x="20" y="700" name="topleft"/>
  <outline>
    <contour>
      <point x="82" y="0" type="curve" smooth="yes"/>
      <point x="603" y="0" type="line" smooth="yes"/>
      <point x="618" y="0"/>
      <point x="630" y="12"/>
      <point x="630" y="27" type="curve" smooth="yes"/>
      <point x="630" y="168" type="line" smooth="yes"/>
      <point x="630" y="183"/>
      <point x="618" y="195"/>
      <point x="603" y="195" type="curve" smooth="yes"/>
      <point x="295" y="195" type="line"/>
      <point x="295" y="258" type="line"/>
      <point x="573" y="258" type="line" smooth="yes"/>
      <point x="588" y="258"/>
      <point x="600" y="270"/>
      <point x="600" y="285" type="curve" smooth="yes"/>
      <point x="600" y="415" type="line" smooth="yes"/>
      <point x="600" y="430"/>
      <point x="588" y="442"/>
      <point x="573" y="442" type="curve" smooth="yes"/>
      <point x="295" y="442" type="line"/>
      <point x="295" y="505" type="line"/>
      <point x="595" y="505" type="line" smooth="yes"/>
      <point x="610" y="505"/>
      <point x="622" y="517"/>
      <point x="622" y="532" type="curve" smooth="yes"/>
      <point x="622" y="673" type="line" smooth="yes"/>
      <point x="622" y="688"/>
      <point x="610" y="700"/>
      <point x="595" y="700" type="curve" smooth="yes"/>
      <point x="82" y="700" type="line" smooth="yes"/>
      <point x="67" y="700"/>
      <point x="55" y="688"/>
      <point x="55" y="673" type="curve" smooth="yes"/>
      <point x="55" y="27" type="line" smooth="yes"/>
      <point x="55" y="12"/>
      <point x="67" y="0"/>
    </contour>
  </outline>
</glyph>
<glyph name="F" format="2">
  <advance width="646"/>
  <unicode hex="0046"/>
  <guideline y="350"/>
  <guideline x="645"/>
  <outline>
    <contour>
      <point x="82" y="0" type="curve" smooth="yes"/>
      <point x="273" y="0" type="line" smooth="yes"/>
      <point x="288" y="0"/>
      <point x="300" y="12"/>
      <point x="300" y="27" type="curve" smooth="yes"/>
      <point x="300" y="215" type="line"/>
      <point x="566" y="215" type="line" smooth="yes"/>
      <point x="581" y="215"/>
      <point x="593" y="227"/>
      <point x="593" y="242" type="curve" smooth="yes"/>
      <point x="593" y="393" type="line" smooth="yes"/>
      <point x="593" y="408"/>
      <point x="581" y="420"/>
      <point x="566" y="420" type="curve" smooth="yes"/>
      <point x="300" y="420" type="line"/>
      <point x="300" y="494" type="line"/>
      <point x="586" y="494" type="line" smooth="yes"/>
      <point x="601" y="494"/>
      <point x="613" y="506"/>
      <point x="613" y="521" type="curve" smooth="yes"/>
      <point x="613" y="673" type="line" smooth="yes"/>
      <point x="613" y="688"/>
      <point x="601" y="700"/>
      <point x="586" y="700" type="curve" smooth="yes"/>
      <point x="82" y="700" type="line" smooth="yes"/>
      <point x="67" y="700"/>
      <point x="55" y="688"/>
      <point x="55" y="673" type="curve" smooth="yes"/>
      <point x="55" y="27" type="line" smooth="yes"/>
      <point x="55" y="12"/>
      <point x="67" y="0"/>
    </contour>
  </outline>
</glyph>
<glyph name="G" format="2">
  <advance width="753"/>
  <unicode hex="0047"/>
  <guideline y="710"/>
  <guideline y="-10"/>
  <guideline y="440"/>
  <guideline y="270"/>
  <guideline x="384"/>
  <guideline x="728"/>
  <outline>
    <contour>
      <point x="374" y="-10" type="curve" smooth="yes"/>
      <point x="576" y="-10"/>
      <point x="718" y="85"/>
      <point x="718" y="265" type="curve" smooth="yes"/>
      <point x="718" y="395" type="line" smooth="yes"/>
      <point x="718" y="410"/>
      <point x="706" y="422"/>
      <point x="691" y="422" type="curve" smooth="yes"/>
      <point x="416" y="422" type="line" smooth="yes"/>
      <point x="401" y="422"/>
      <point x="389" y="410"/>
      <point x="389" y="395" type="curve" smooth="yes"/>
      <point x="389" y="284" type="line" smooth="yes"/>
      <point x="389" y="269"/>
      <point x="401" y="257"/>
      <point x="416" y="257" type="curve" smooth="yes"/>
      <point x="463" y="257" type="line"/>
      <point x="463" y="256" type="line"/>
      <point x="463" y="205"/>
      <point x="428" y="185"/>
      <point x="378" y="185" type="curve" smooth="yes"/>
      <point x="329" y="185"/>
      <point x="299" y="210"/>
      <point x="297" y="270" type="curve"/>
      <point x="295" y="327"/>
      <point x="295" y="385"/>
      <point x="297" y="440" type="curve"/>
      <point x="299" y="490"/>
      <point x="325" y="515"/>
      <point x="374" y="515" type="curve" smooth="yes"/>
      <point x="423" y="515"/>
      <point x="438" y="486"/>
      <point x="446" y="476" type="curve" smooth="yes"/>
      <point x="452" y="469"/>
      <point x="460" y="465"/>
      <point x="475" y="465" type="curve" smooth="yes"/>
      <point x="696" y="465" type="line" smooth="yes"/>
      <point x="708" y="465"/>
      <point x="718" y="475"/>
      <point x="718" y="487" type="curve" smooth="yes"/>
      <point x="715" y="608"/>
      <point x="585" y="710"/>
      <point x="374" y="710" type="curve" smooth="yes"/>
      <point x="177" y="710"/>
      <point x="44" y="622"/>
      <point x="37" y="445" type="curve"/>
      <point x="35" y="388"/>
      <point x="35" y="319"/>
      <point x="37" y="265" type="curve" smooth="yes"/>
      <point x="45" y="79"/>
      <point x="172" y="-10"/>
    </contour>
  </outline>
</glyph>
<glyph name="I" format="2">
  <advance width="368"/>
  <unicode hex="0049"/>
  <guideline x="318"/>
  <guideline x="70"/>
  <anchor x="184" y="0" name="bottom"/>
  <anchor x="331" y="10" name="ogonek"/>
  <anchor x="184" y="700" name="top"/>
  <anchor x="20" y="700" name="topleft"/>
  <outline>
    <contour>
      <point x="82" y="0" type="curve" smooth="yes"/>
      <point x="286" y="0" type="line" smooth="yes"/>
      <point x="301" y="0"/>
      <point x="313" y="12"/>
      <point x="313" y="27" type="curve" smooth="yes"/>
      <point x="313" y="673" type="line" smooth="yes"/>
      <point x="313" y="688"/>
      <point x="301" y="700"/>
      <point x="286" y="700" type="curve" smooth="yes"/>
      <point x="82" y="700" type="line" smooth="yes"/>
      <point x="67" y="700"/>
      <point x="55" y="688"/>
      <point x="55" y="673" type="curve" smooth="yes"/>
      <point x="55" y="27" type="line" smooth="yes"/>
      <point x="55" y="12"/>
      <point x="67" y="0"/>
    </contour>
  </outline>
</glyph>
<glyph name="P" format="2">
  <advance width="705"/>
  <unicode hex="0050"/>
  <guideline y="459"/>
  <guideline x="390"/>
  <outline>
    <contour>
      <point x="82" y="0" type="curve" smooth="yes"/>
      <point x="288" y="0" type="line" smooth="yes"/>
      <point x="303" y="0"/>
      <point x="315" y="12"/>
      <point x="315" y="27" type="curve" smooth="yes"/>
      <point x="315" y="218" type="line"/>
      <point x="385" y="218" type="line" smooth="yes"/>
      <point x="566" y="218"/>
      <point x="686" y="289"/>
      <point x="686" y="455" type="curve" smooth="yes"/>
      <point x="686" y="621"/>
      <point x="566" y="700"/>
      <point x="385" y="700" type="curve" smooth="yes"/>
      <point x="82" y="700" type="line" smooth="yes"/>
      <point x="67" y="700"/>
      <point x="55" y="688"/>
      <point x="55" y="673" type="curve" smooth="yes"/>
      <point x="55" y="27" type="line" smooth="yes"/>
      <point x="55" y="12"/>
      <point x="67" y="0"/>
    </contour>
    <contour>
      <point x="310" y="403" type="line"/>
      <point x="310" y="514" type="line"/>
      <point x="380" y="514" type="line" smooth="yes"/>
      <point x="416" y="514"/>
      <point x="426" y="482"/>
      <point x="426" y="457" type="curve" smooth="yes"/>
      <point x="426" y="418"/>
      <point x="401" y="403"/>
      <point x="380" y="403" type="curve" smooth="yes"/>
    </contour>
  </outline>
</glyph>
<glyph name="S" format="2">
  <advance width="697"/>
  <unicode hex="0053"/>
  <guideline y="710"/>
  <guideline y="-10"/>
  <guideline y="487"/>
  <guideline y="226"/>
  <guideline x="-1244"/>
  <anchor x="349" y="0" name="bottom"/>
  <anchor x="349" y="700" name="top"/>
  <outline>
    <contour>
      <point x="347" y="-10" type="curve" smooth="yes"/>
      <point x="536" y="-10"/>
      <point x="679" y="80"/>
      <point x="679" y="226" type="curve" smooth="yes"/>
      <point x="679" y="356"/>
      <point x="603" y="419"/>
      <point x="403" y="444" type="curve" smooth="yes"/>
      <point x="313" y="455"/>
      <point x="292" y="468"/>
      <point x="292" y="487" type="curve" smooth="yes"/>
      <point x="292" y="504"/>
      <point x="306" y="515"/>
      <point x="340" y="515" type="curve" smooth="yes"/>
      <point x="368" y="515"/>
      <point x="386" y="503"/>
      <point x="393" y="497" type="curve" smooth="yes"/>
      <point x="405" y="486"/>
      <point x="414" y="481"/>
      <point x="433" y="481" type="curve" smooth="yes"/>
      <point x="633" y="481" type="line" smooth="yes"/>
      <point x="644" y="481"/>
      <point x="654" y="491"/>
      <point x="654" y="503" type="curve" smooth="yes"/>
      <point x="651" y="590"/>
      <point x="540" y="710"/>
      <point x="340" y="710" type="curve" smooth="yes"/>
      <point x="158" y="710"/>
      <point x="35" y="616"/>
      <point x="35" y="480" type="curve" smooth="yes"/>
      <point x="35" y="347"/>
      <point x="135" y="281"/>
      <point x="293" y="260" type="curve" smooth="yes"/>
      <point x="392" y="247"/>
      <point x="422" y="237"/>
      <point x="422" y="213" type="curve" smooth="yes"/>
      <point x="422" y="195"/>
      <point x="392" y="185"/>
      <point x="347" y="185" type="curve" smooth="yes"/>
      <point x="314" y="185"/>
      <point x="292" y="193"/>
      <point x="273" y="208" type="curve" smooth="yes"/>
      <point x="259" y="219"/>
      <point x="251" y="225"/>
      <point x="230" y="225" type="curve" smooth="yes"/>
      <point x="40" y="225" type="line" smooth="yes"/>
      <point x="28" y="225"/>
      <point x="18" y="215"/>
      <point x="18" y="203" type="curve" smooth="yes"/>
      <point x="21" y="92"/>
      <point x="126" y="-10"/>
    </contour>
  </outline>
</glyph>
<glyph name="U" format="2">
  <advance width="746"/>
  <unicode hex="0055"/>
  <guideline y="-10"/>
  <guideline y="268"/>
  <guideline x="380"/>
  <anchor x="373" y="0" name="bottom"/>
  <anchor x="671" y="10" name="ogonek"/>
  <anchor x="373" y="700" name="top"/>
  <anchor x="726" y="700" name="topright"/>
  <outline>
    <contour>
      <point x="374" y="-10" type="curve" smooth="yes"/>
      <point x="564" y="-10"/>
      <point x="697" y="75"/>
      <point x="697" y="264" type="curve" smooth="yes"/>
      <point x="697" y="673" type="line" smooth="yes"/>
      <point x="697" y="688"/>
      <point x="685" y="700"/>
      <point x="670" y="700" type="curve" smooth="yes"/>
      <point x="474" y="700" type="line" smooth="yes"/>
      <point x="459" y="700"/>
      <point x="447" y="688"/>
      <point x="447" y="673" type="curve" smooth="yes"/>
      <point x="447" y="268" type="line" smooth="yes"/>
      <point x="447" y="218"/>
      <point x="422" y="191"/>
      <point x="373" y="191" type="curve" smooth="yes"/>
      <point x="324" y="191"/>
      <point x="299" y="218"/>
      <point x="299" y="268" type="curve" smooth="yes"/>
      <point x="299" y="673" type="line" smooth="yes"/>
      <point x="299" y="688"/>
      <point x="287" y="700"/>
      <point x="272" y="700" type="curve" smooth="yes"/>
      <point x="76" y="700" type="line" smooth="yes"/>
      <point x="61" y="700"/>
      <point x="49" y="688"/>
      <point x="49" y="673" type="curve" smooth="yes"/>
      <point x="49" y="264" type="line" smooth="yes"/>
      <point x="49" y="75"/>
      <point x="182" y="-10"/>
    </contour>
  </outline>
</glyph>
<glyph name="i" format="2">
  <advance width="323"/>
  <unicode hex="0069"/>
  <guideline y="740"/>
  <guideline y="575"/>
  <guideline x="50"/>
  <guideline x="283"/>
  <guideline x="166"/>
  <outline>
    <contour>
      <point x="72" y="0" type="curve" smooth="yes"/>
      <point x="251" y="0" type="line" smooth="yes"/>
      <point x="266" y="0"/>
      <point x="278" y="12"/>
      <point x="278" y="27" type="curve" smooth="yes"/>
      <point x="278" y="493" type="line" smooth="yes"/>
      <point x="278" y="508"/>
      <point x="266" y="520"/>
      <point x="251" y="520" type="curve" smooth="yes"/>
      <point x="72" y="520" type="line" smooth="yes"/>
      <point x="57" y="520"/>
      <point x="45" y="508"/>
      <point x="45" y="493" type="curve" smooth="yes"/>
      <point x="45" y="27" type="line" smooth="yes"/>
      <point x="45" y="12"/>
      <point x="57" y="0"/>
    </contour>
    <contour>
      <point x="77" y="575" type="curve" smooth="yes"/>
      <point x="246" y="575" type="line" smooth="yes"/>
      <point x="261" y="575"/>
      <point x="273" y="587"/>
      <point x="273" y="602" type="curve" smooth="yes"/>
      <point x="273" y="723" type="line" smooth="yes"/>
      <point x="273" y="738"/>
      <point x="261" y="750"/>
      <point x="246" y="750" type="curve" smooth="yes"/>
      <point x="77" y="750" type="line" smooth="yes"/>
      <point x="62" y="750"/>
      <point x="50" y="738"/>
      <point x="50" y="723" type="curve" smooth="yes"/>
      <point x="50" y="602" type="line" smooth="yes"/>
      <point x="50" y="587"/>
      <point x="62" y="575"/>
    </contour>
  </outline>
</glyph>
<glyph name="j" format="2">
  <advance width="345"/>
  <unicode hex="006A"/>
  <guideline y="740"/>
  <guideline y="560"/>
  <guideline y="-190"/>
  <guideline y="35"/>
  <guideline x="189"/>
  <guideline x="68"/>
  <guideline x="310"/>
  <outline>
    <contour>
      <point x="-43" y="-190" type="curve" smooth="yes"/>
      <point x="45" y="-190" type="line" smooth="yes"/>
      <point x="190" y="-190"/>
      <point x="300" y="-121"/>
      <point x="300" y="29" type="curve" smooth="yes"/>
      <point x="300" y="493" type="line" smooth="yes"/>
      <point x="300" y="508"/>
      <point x="288" y="520"/>
      <point x="273" y="520" type="curve" smooth="yes"/>
      <point x="85" y="520" type="line" smooth="yes"/>
      <point x="70" y="520"/>
      <point x="58" y="508"/>
      <point x="58" y="493" type="curve" smooth="yes"/>
      <point x="58" y="35" type="line" smooth="yes"/>
      <point x="58" y="4"/>
      <point x="45" y="-15"/>
      <point x="15" y="-15" type="curve" smooth="yes"/>
      <point x="-43" y="-15" type="line" smooth="yes"/>
      <point x="-58" y="-15"/>
      <point x="-70" y="-27"/>
      <point x="-70" y="-42" type="curve" smooth="yes"/>
      <point x="-70" y="-163" type="line" smooth="yes"/>
      <point x="-70" y="-178"/>
      <point x="-58" y="-190"/>
    </contour>
    <contour>
      <point x="90" y="575" type="curve" smooth="yes"/>
      <point x="268" y="575" type="line" smooth="yes"/>
      <point x="283" y="575"/>
      <point x="295" y="587"/>
      <point x="295" y="602" type="curve" smooth="yes"/>
      <point x="295" y="723" type="line" smooth="yes"/>
      <point x="295" y="738"/>
      <point x="283" y="750"/>
      <point x="268" y="750" type="curve" smooth="yes"/>
      <point x="90" y="750" type="line" smooth="yes"/>
      <point x="75" y="750"/>
      <point x="63" y="738"/>
      <point x="63" y="723" type="curve" smooth="yes"/>
      <point x="63" y="602" type="line" smooth="yes"/>
      <point x="63" y="587"/>
      <point x="75" y="575"/>
    </contour>
  </outline>
</glyph>
<glyph name="braceleft" format="2">
  <advance width="474"/>
  <unicode hex="007B"/>
  <outline>
    <contour>
      <point x="424" y="-158" type="curve"/>
      <point x="429" y="-158" type="line"/>
      <point x="441" y="-158"/>
      <point x="451" y="-148"/>
      <point x="451" y="-136" type="curve" smooth="yes"/>
      <point x="451" y="1" type="line" smooth="yes"/>
      <point x="451" y="13"/>
      <point x="441" y="22"/>
      <point x="432" y="23" type="curve"/>
      <point x="427" y="24" type="line"/>
      <point x="357" y="33"/>
      <point x="304" y="63"/>
      <point x="304" y="142" type="curve" smooth="yes"/>
      <point x="304" y="222"/>
      <point x="268" y="296"/>
      <point x="231" y="309" type="curve"/>
      <point x="268" y="322"/>
      <point x="304" y="388"/>
      <point x="304" y="476" type="curve" smooth="yes"/>
      <point x="304" y="556"/>
      <point x="357" y="585"/>
      <point x="429" y="595" type="curve"/>
      <point x="432" y="595" type="line"/>
      <point x="441" y="596"/>
      <point x="451" y="605"/>
      <point x="451" y="617" type="curve" smooth="yes"/>
      <point x="451" y="754" type="line" smooth="yes"/>
      <point x="451" y="766"/>
      <point x="441" y="776"/>
      <point x="429" y="776" type="curve"/>
      <point x="422" y="776" type="line"/>
      <point x="267" y="773"/>
      <point x="94" y="687"/>
      <point x="94" y="487" type="curve" smooth="yes"/>
      <point x="94" y="444"/>
      <point x="79" y="400"/>
      <point x="40" y="384" type="curve" smooth="yes"/>
      <point x="23" y="377" type="line" smooth="yes"/>
      <point x="3" y="368"/>
      <point x="-6" y="356"/>
      <point x="-6" y="335" type="curve" smooth="yes"/>
      <point x="-6" y="283" type="line" smooth="yes"/>
      <point x="-6" y="262"/>
      <point x="3" y="250"/>
      <point x="23" y="241" type="curve" smooth="yes"/>
      <point x="40" y="234" type="line" smooth="yes"/>
      <point x="79" y="218"/>
      <point x="94" y="174"/>
      <point x="94" y="131" type="curve" smooth="yes"/>
      <point x="94" y="-70"/>
      <point x="268" y="-156"/>
    </contour>
  </outline>
</glyph>
<glyph name="braceright" format="2">
  <advance width="474"/>
  <unicode hex="007D"/>
  <outline>
    <contour>
      <point x="50" y="776" type="curve"/>
      <point x="45" y="776" type="line"/>
      <point x="33" y="776"/>
      <point x="23" y="766"/>
      <point x="23" y="754" type="curve" smooth="yes"/>
      <point x="23" y="617" type="line" smooth="yes"/>
      <point x="23" y="605"/>
      <point x="33" y="596"/>
      <point x="42" y="595" type="curve"/>
      <point x="47" y="594" type="line"/>
      <point x="117" y="585"/>
      <point x="170" y="555"/>
      <point x="170" y="476" type="curve" smooth="yes"/>
      <point x="170" y="396"/>
      <point x="206" y="322"/>
      <point x="243" y="309" type="curve"/>
      <point x="206" y="296"/>
      <point x="170" y="230"/>
      <point x="170" y="142" type="curve" smooth="yes"/>
      <point x="170" y="62"/>
      <point x="117" y="33"/>
      <point x="45" y="23" type="curve"/>
      <point x="42" y="23" type="line"/>
      <point x="33" y="22"/>
      <point x="23" y="13"/>
      <point x="23" y="1" type="curve" smooth="yes"/>
      <point x="23" y="-136" type="line" smooth="yes"/>
      <point x="23" y="-148"/>
      <point x="33" y="-158"/>
      <point x="45" y="-158" type="curve"/>
      <point x="52" y="-158" type="line"/>
      <point x="207" y="-155"/>
      <point x="380" y="-69"/>
      <point x="380" y="131" type="curve" smooth="yes"/>
      <point x="380" y="174"/>
      <point x="395" y="218"/>
      <point x="434" y="234" type="curve" smooth="yes"/>
      <point x="451" y="241" type="line" smooth="yes"/>
      <point x="471" y="250"/>
      <point x="480" y="262"/>
      <point x="480" y="283" type="curve" smooth="yes"/>
      <point x="480" y="335" type="line" smooth="yes"/>
      <point x="480" y="356"/>
      <point x="471" y="368"/>
      <point x="451" y="377" type="curve" smooth="yes"/>
      <point x="434" y="384" type="line" smooth="yes"/>
      <point x="395" y="400"/>
      <point x="380" y="444"/>
      <point x="380" y="487" type="curve" smooth="yes"/>
      <point x="380" y="688"/>
      <point x="206" y="774"/>
    </contour>
  </outline>
</glyph>
<glyph name="degree" format="2">
  <advance width="430"/>
  <unicode hex="00B0"/>
  <guideline y="519"/>
  <guideline x="226"/>
  <outline>
    <contour>
      <point x="215" y="328" type="curve" smooth="yes"/>
      <point x="323" y="328"/>
      <point x="411" y="411"/>
      <point x="411" y="519" type="curve" smooth="yes"/>
      <point x="411" y="627"/>
      <point x="323" y="710"/>
      <point x="215" y="710" type="curve" smooth="yes"/>
      <point x="107" y="710"/>
      <point x="19" y="627"/>
      <point x="19" y="519" type="curve" smooth="yes"/>
      <point x="19" y="411"/>
      <point x="107" y="328"/>
    </contour>
    <contour>
      <point x="215" y="443" type="curve" smooth="yes"/>
      <point x="170" y="443"/>
      <point x="139" y="474"/>
      <point x="139" y="519" type="curve" smooth="yes"/>
      <point x="139" y="564"/>
      <point x="170" y="595"/>
      <point x="215" y="595" type="curve" smooth="yes"/>
      <point x="260" y="595"/>
      <point x="291" y="564"/>
      <point x="291" y="519" type="curve" smooth="yes"/>
      <point x="291" y="474"/>
      <point x="260" y="443"/>
    </contour>
  </outline>
</glyph>
<glyph name="gcommaaccent" format="2">
  <advance width="666"/>
  <unicode hex="0123"/>
  <guideline y="595"/>
  <guideline x="330"/>
  <outline>
    <contour>
      <point x="449" y="795" type="curve" smooth="yes"/>
      <point x="344" y="795" type="line" smooth="yes"/>
      <point x="318" y="795"/>
      <point x="306" y="776"/>
      <point x="301" y="763" type="curve" smooth="yes"/>
      <point x="246" y="624" type="line" smooth="yes"/>
      <point x="245" y="621"/>
      <point x="245" y="619"/>
      <point x="245" y="617" type="curve" smooth="yes"/>
      <point x="245" y="605"/>
      <point x="255" y="595"/>
      <point x="267" y="595" type="curve" smooth="yes"/>
      <point x="407" y="595" type="line" smooth="yes"/>
      <point x="434" y="595"/>
      <point x="447" y="616"/>
      <point x="450" y="634" type="curve"/>
      <point x="471" y="773" type="line"/>
      <point x="471" y="785"/>
      <point x="461" y="795"/>
    </contour>
    <component base="g"/>
  </outline>
</glyph>
<glyph name="Tbar" format="2">
  <advance width="682"/>
  <unicode hex="0166"/>
  <guideline y="320"/>
  <guideline x="350"/>
  <outline>
    <contour>
      <point x="241" y="0" type="curve" smooth="yes"/>
      <point x="441" y="0" type="line" smooth="yes"/>
      <point x="456" y="0"/>
      <point x="468" y="12"/>
      <point x="468" y="27" type="curve" smooth="yes"/>
      <point x="468" y="258" type="line"/>
      <point x="558" y="258" type="line" smooth="yes"/>
      <point x="573" y="258"/>
      <point x="585" y="270"/>
      <point x="585" y="285" type="curve" smooth="yes"/>
      <point x="585" y="356" type="line" smooth="yes"/>
      <point x="585" y="371"/>
      <point x="573" y="383"/>
      <point x="558" y="383" type="curve" smooth="yes"/>
      <point x="468" y="383" type="line"/>
      <point x="468" y="485" type="line"/>
      <point x="634" y="485" type="line" smooth="yes"/>
      <point x="649" y="485"/>
      <point x="661" y="497"/>
      <point x="661" y="512" type="curve" smooth="yes"/>
      <point x="661" y="673" type="line" smooth="yes"/>
      <point x="661" y="688"/>
      <point x="649" y="700"/>
      <point x="634" y="700" type="curve" smooth="yes"/>
      <point x="48" y="700" type="line" smooth="yes"/>
      <point x="33" y="700"/>
      <point x="21" y="688"/>
      <point x="21" y="673" type="curve" smooth="yes"/>
      <point x="21" y="512" type="line" smooth="yes"/>
      <point x="21" y="497"/>
      <point x="33" y="485"/>
      <point x="48" y="485" type="curve" smooth="yes"/>
      <point x="214" y="485" type="line"/>
      <point x="214" y="383" type="line"/>
      <point x="124" y="383" type="line" smooth="yes"/>
      <point x="109" y="383"/>
      <point x="97" y="371"/>
      <point x="97" y="356" type="curve" smooth="yes"/>
      <point x="97" y="285" type="line" smooth="yes"/>
      <point x="97" y="270"/>
      <point x="109" y="258"/>
      <point x="124" y="258" type="curve" smooth="yes"/>
      <point x="214" y="258" type="line"/>
      <point x="214" y="27" type="line" smooth="yes"/>
      <point x="214" y="12"/>
      <point x="226" y="0"/>
    </contour>
  </outline>
</glyph>
<glyph name="caron" format="2">
  <advance width="528"/>
  <unicode hex="02C7"/>
  <guideline y="595" identifier="FxXqajUD05"/>
  <outline>
    <contour>
      <point x="204" y="595" type="curve" smooth="yes"/>
      <point x="324" y="595" type="line" smooth="yes"/>
      <point x="339" y="595"/>
      <point x="348" y="600"/>
      <point x="361" y="614" type="curve" smooth="yes"/>
      <point x="473" y="736" type="line" smooth="yes"/>
      <point x="476" y="739"/>
      <point x="478" y="744"/>
      <point x="478" y="749" type="curve" smooth="yes"/>
      <point x="478" y="759"/>
      <point x="472" y="765"/>
      <point x="462" y="765" type="curve" smooth="yes"/>
      <point x="396" y="765" type="line" smooth="yes"/>
      <point x="383" y="765"/>
      <point x="370" y="765"/>
      <point x="356" y="758" type="curve" smooth="yes"/>
      <point x="264" y="716" type="line"/>
      <point x="172" y="758" type="line" smooth="yes"/>
      <point x="158" y="765"/>
      <point x="145" y="765"/>
      <point x="132" y="765" type="curve" smooth="yes"/>
      <point x="66" y="765" type="line" smooth="yes"/>
      <point x="56" y="765"/>
      <point x="50" y="759"/>
      <point x="50" y="749" type="curve" smooth="yes"/>
      <point x="50" y="744"/>
      <point x="52" y="739"/>
      <point x="55" y="736" type="curve" smooth="yes"/>
      <point x="167" y="614" type="line" smooth="yes"/>
      <point x="180" y="600"/>
      <point x="189" y="595"/>
    </contour>
  </outline>
</glyph>
<glyph name="breve" format="2">
  <advance width="445"/>
  <unicode hex="02D8"/>
  <guideline y="590" identifier="SgU4spaAps"/>
  <outline>
    <contour>
      <point x="222" y="590" type="curve" smooth="yes"/>
      <point x="332" y="590"/>
      <point x="394" y="656"/>
      <point x="394" y="746" type="curve" smooth="yes"/>
      <point x="394" y="756"/>
      <point x="387" y="765"/>
      <point x="375" y="765" type="curve" smooth="yes"/>
      <point x="281" y="765" type="line" smooth="yes"/>
      <point x="269" y="765"/>
      <point x="262" y="756"/>
      <point x="262" y="746" type="curve" smooth="yes"/>
      <point x="262" y="716"/>
      <point x="252" y="691"/>
      <point x="222" y="691" type="curve" smooth="yes"/>
      <point x="192" y="691"/>
      <point x="182" y="716"/>
      <point x="182" y="746" type="curve" smooth="yes"/>
      <point x="182" y="756"/>
      <point x="175" y="765"/>
      <point x="163" y="765" type="curve" smooth="yes"/>
      <point x="69" y="765" type="line" smooth="yes"/>
      <point x="57" y="765"/>
      <point x="50" y="756"/>
      <point x="50" y="746" type="curve" smooth="yes"/>
      <point x="50" y="656"/>
      <point x="112" y="590"/>
    </contour>
  </outline>
</glyph>
<glyph name="commaaccentcomb" format="2">
  <unicode hex="0326"/>
  <guideline y="-50"/>
  <guideline y="-250"/>
  <anchor x="113" y="0" name="_bottom"/>
  <anchor x="141" y="-220" name="bottom"/>
  <outline>
    <contour>
      <point x="72" y="-250" type="curve" smooth="yes"/>
      <point x="177" y="-250" type="line" smooth="yes"/>
      <point x="203" y="-250"/>
      <point x="215" y="-231"/>
      <point x="220" y="-218" type="curve" smooth="yes"/>
      <point x="275" y="-79" type="line" smooth="yes"/>
      <point x="276" y="-76"/>
      <point x="276" y="-74"/>
      <point x="276" y="-72" type="curve" smooth="yes"/>
      <point x="276" y="-60"/>
      <point x="266" y="-50"/>
      <point x="254" y="-50" type="curve" smooth="yes"/>
      <point x="114" y="-50" type="line" smooth="yes"/>
      <point x="87" y="-50"/>
      <point x="74" y="-71"/>
      <point x="71" y="-89" type="curve"/>
      <point x="50" y="-228" type="line"/>
      <point x="50" y="-240"/>
      <point x="60" y="-250"/>
    </contour>
  </outline>
</glyph>
<glyph name="E-cy" format="2">
  <advance width="728"/>
  <unicode hex="0404"/>
  <outline>
    <contour>
      <point x="366" y="-10" type="curve" smooth="yes"/>
      <point x="530" y="-10"/>
      <point x="674" y="52"/>
      <point x="691" y="197" type="curve" smooth="yes"/>
      <point x="692" y="209"/>
      <point x="681" y="219"/>
      <point x="669" y="219" type="curve" smooth="yes"/>
      <point x="473" y="219" type="line" smooth="yes"/>
      <point x="457" y="219"/>
      <point x="451" y="215"/>
      <point x="439" y="203" type="curve" smooth="yes"/>
      <point x="426" y="190"/>
      <point x="407" y="183"/>
      <point x="372" y="183" type="curve" smooth="yes"/>
      <point x="321" y="183"/>
      <point x="291" y="205"/>
      <point x="291" y="250" type="curve"/>
      <point x="291" y="260" type="line"/>
      <point x="444" y="260" type="line" smooth="yes"/>
      <point x="459" y="260"/>
      <point x="471" y="274"/>
      <point x="471" y="289" type="curve" smooth="yes"/>
      <point x="471" y="409" type="line" smooth="yes"/>
      <point x="471" y="424"/>
      <point x="459" y="438"/>
      <point x="444" y="438" type="curve" smooth="yes"/>
      <point x="291" y="438" type="line"/>
      <point x="291" y="448" type="line"/>
      <point x="291" y="496"/>
      <point x="320" y="515"/>
      <point x="372" y="515" type="curve" smooth="yes"/>
      <point x="407" y="515"/>
      <point x="427" y="504"/>
      <point x="434" y="495" type="curve" smooth="yes"/>
      <point x="443" y="483"/>
      <point x="449" y="479"/>
      <point x="466" y="479" type="curve" smooth="yes"/>
      <point x="664" y="479" type="line" smooth="yes"/>
      <point x="676" y="479"/>
      <point x="687" y="489"/>
      <point x="686" y="501" type="curve" smooth="yes"/>
      <point x="669" y="644"/>
      <point x="538" y="710"/>
      <point x="366" y="710" type="curve" smooth="yes"/>
      <point x="170" y="710"/>
      <point x="39" y="618"/>
      <point x="31" y="439" type="curve" smooth="yes"/>
      <point x="30" y="419"/>
      <point x="30" y="280"/>
      <point x="31" y="261" type="curve" smooth="yes"/>
      <point x="39" y="77"/>
      <point x="165" y="-10"/>
    </contour>
  </outline>
</glyph>
<glyph name="Lje-cy" format="2">
  <advance width="1158"/>
  <unicode hex="0409"/>
  <guideline x="17" y="267" angle="0"/>
  <outline>
    <contour>
      <point x="63" y="0" type="curve" smooth="yes"/>
      <point x="340" y="0"/>
      <point x="376" y="127"/>
      <point x="376" y="449" type="curve" smooth="yes"/>
      <point x="376" y="480" type="line"/>
      <point x="508" y="480" type="line"/>
      <point x="508" y="27" type="line" smooth="yes"/>
      <point x="508" y="12"/>
      <point x="520" y="0"/>
      <point x="535" y="0" type="curve" smooth="yes"/>
      <point x="823" y="0" type="line" smooth="yes"/>
      <point x="1015" y="0"/>
      <point x="1129" y="84"/>
      <point x="1129" y="245" type="curve" smooth="yes"/>
      <point x="1129" y="406"/>
      <point x="1016" y="482"/>
      <point x="823" y="482" type="curve" smooth="yes"/>
      <point x="758" y="482" type="line"/>
      <point x="758" y="673" type="line" smooth="yes"/>
      <point x="758" y="688"/>
      <point x="746" y="700"/>
      <point x="731" y="700" type="curve" smooth="yes"/>
      <point x="163" y="700" type="line" smooth="yes"/>
      <point x="148" y="700"/>
      <point x="136" y="688"/>
      <point x="136" y="673" type="curve" smooth="yes"/>
      <point x="136" y="481" type="line" smooth="yes"/>
      <point x="136" y="357"/>
      <point x="130" y="225"/>
      <point x="62" y="212" type="curve" smooth="yes"/>
      <point x="46" y="209"/>
      <point x="35" y="200"/>
      <point x="35" y="185" type="curve" smooth="yes"/>
      <point x="35" y="27" type="line" smooth="yes"/>
      <point x="35" y="12"/>
      <point x="48" y="0"/>
    </contour>
    <contour>
      <point x="758" y="186" type="line"/>
      <point x="758" y="297" type="line"/>
      <point x="823" y="297" type="line" smooth="yes"/>
      <point x="847" y="297"/>
      <point x="869" y="279"/>
      <point x="869" y="243" type="curve" smooth="yes"/>
      <point x="869" y="212"/>
      <point x="855" y="186"/>
      <point x="823" y="186" type="curve" smooth="yes"/>
    </contour>
  </outline>
</glyph>
<glyph name="Nje-cy" format="2">
  <advance width="1117"/>
  <unicode hex="040A"/>
  <outline>
    <contour>
      <point x="82" y="0" type="curve" smooth="yes"/>
      <point x="278" y="0" type="line" smooth="yes"/>
      <point x="293" y="0"/>
      <point x="305" y="12"/>
      <point x="305" y="27" type="curve" smooth="yes"/>
      <point x="305" y="243" type="line"/>
      <point x="467" y="243" type="line"/>
      <point x="467" y="27" type="line" smooth="yes"/>
      <point x="467" y="12"/>
      <point x="479" y="0"/>
      <point x="494" y="0" type="curve" smooth="yes"/>
      <point x="782" y="0" type="line" smooth="yes"/>
      <point x="974" y="0"/>
      <point x="1088" y="84"/>
      <point x="1088" y="245" type="curve" smooth="yes"/>
      <point x="1088" y="406"/>
      <point x="975" y="482"/>
      <point x="782" y="482" type="curve" smooth="yes"/>
      <point x="717" y="482" type="line"/>
      <point x="717" y="673" type="line" smooth="yes"/>
      <point x="717" y="688"/>
      <point x="705" y="700"/>
      <point x="690" y="700" type="curve" smooth="yes"/>
      <point x="494" y="700" type="line" smooth="yes"/>
      <point x="479" y="700"/>
      <point x="467" y="688"/>
      <point x="467" y="673" type="curve" smooth="yes"/>
      <point x="467" y="463" type="line"/>
      <point x="305" y="463" type="line"/>
      <point x="305" y="673" type="line" smooth="yes"/>
      <point x="305" y="688"/>
      <point x="293" y="700"/>
      <point x="278" y="700" type="curve" smooth="yes"/>
      <point x="82" y="700" type="line" smooth="yes"/>
      <point x="67" y="700"/>
      <point x="55" y="688"/>
      <point x="55" y="673" type="curve" smooth="yes"/>
      <point x="55" y="27" type="line" smooth="yes"/>
      <point x="55" y="11"/>
      <point x="67" y="0"/>
    </contour>
    <contour>
      <point x="717" y="186" type="line"/>
      <point x="717" y="297" type="line"/>
      <point x="782" y="297" type="line" smooth="yes"/>
      <point x="806" y="297"/>
      <point x="828" y="279"/>
      <point x="828" y="243" type="curve" smooth="yes"/>
      <point x="828" y="212"/>
      <point x="814" y="186"/>
      <point x="782" y="186" type="curve" smooth="yes"/>
    </contour>
  </outline>
</glyph>
<glyph name="Be-cy" format="2">
  <advance width="672"/>
  <unicode hex="0411"/>
  <outline>
    <contour>
      <point x="82" y="0" type="curve" smooth="yes"/>
      <point x="395" y="0" type="line" smooth="yes"/>
      <point x="575" y="0"/>
      <point x="681" y="85"/>
      <point x="681" y="226" type="curve" smooth="yes"/>
      <point x="681" y="365"/>
      <point x="570" y="447"/>
      <point x="395" y="447" type="curve" smooth="yes"/>
      <point x="305" y="447" type="line"/>
      <point x="305" y="495" type="line"/>
      <point x="600" y="495" type="line" smooth="yes"/>
      <point x="615" y="495"/>
      <point x="627" y="507"/>
      <point x="627" y="522" type="curve" smooth="yes"/>
      <point x="627" y="673" type="line" smooth="yes"/>
      <point x="627" y="688"/>
      <point x="615" y="700"/>
      <point x="600" y="700" type="curve" smooth="yes"/>
      <point x="82" y="700" type="line" smooth="yes"/>
      <point x="67" y="700"/>
      <point x="55" y="688"/>
      <point x="55" y="673" type="curve" smooth="yes"/>
      <point x="55" y="27" type="line" smooth="yes"/>
      <point x="55" y="12"/>
      <point x="67" y="0"/>
    </contour>
    <contour>
      <point x="305" y="172" type="line"/>
      <point x="305" y="280" type="line"/>
      <point x="375" y="280" type="line" smooth="yes"/>
      <point x="403" y="280"/>
      <point x="421" y="253"/>
      <point x="421" y="226" type="curve" smooth="yes"/>
      <point x="421" y="199"/>
      <point x="406" y="172"/>
      <point x="375" y="172" type="curve" smooth="yes"/>
    </contour>
  </outline>
</glyph>
<glyph name="Zhe-cy" format="2">
  <advance width="1136"/>
  <unicode hex="0416"/>
  <anchor x="816" y="0" name="bottomright"/>
  <anchor x="568" y="700" name="top"/>
  <outline>
    <contour>
      <point x="32" y="0" type="curve" smooth="yes"/>
      <point x="260" y="0" type="line" smooth="yes"/>
      <point x="287" y="0"/>
      <point x="297" y="17"/>
      <point x="301" y="23" type="curve" smooth="yes"/>
      <point x="424" y="243" type="line"/>
      <point x="448" y="243" type="line"/>
      <point x="448" y="27" type="line" smooth="yes"/>
      <point x="448" y="11"/>
      <point x="460" y="0"/>
      <point x="475" y="0" type="curve" smooth="yes"/>
      <point x="661" y="0" type="line" smooth="yes"/>
      <point x="676" y="0"/>
      <point x="688" y="11"/>
      <point x="688" y="27" type="curve" smooth="yes"/>
      <point x="688" y="243" type="line"/>
      <point x="712" y="243" type="line"/>
      <point x="835" y="23" type="line" smooth="yes"/>
      <point x="839" y="17"/>
      <point x="849" y="0"/>
      <point x="876" y="0" type="curve" smooth="yes"/>
      <point x="1104" y="0" type="line" smooth="yes"/>
      <point x="1116" y="0"/>
      <point x="1126" y="10"/>
      <point x="1126" y="22" type="curve" smooth="yes"/>
      <point x="1126" y="25"/>
      <point x="1125" y="30"/>
      <point x="1123" y="33" type="curve" smooth="yes"/>
      <point x="926" y="365" type="line"/>
      <point x="1106" y="667" type="line" smooth="yes"/>
      <point x="1108" y="670"/>
      <point x="1109" y="674"/>
      <point x="1109" y="678" type="curve" smooth="yes"/>
      <point x="1109" y="690"/>
      <point x="1099" y="700"/>
      <point x="1087" y="700" type="curve" smooth="yes"/>
      <point x="866" y="700" type="line" smooth="yes"/>
      <point x="844" y="700"/>
      <point x="832" y="689"/>
      <point x="826" y="678" type="curve" smooth="yes"/>
      <point x="704" y="463" type="line"/>
      <point x="688" y="463" type="line"/>
      <point x="688" y="673" type="line" smooth="yes"/>
      <point x="688" y="688"/>
      <point x="676" y="700"/>
      <point x="661" y="700" type="curve" smooth="yes"/>
      <point x="475" y="700" type="line" smooth="yes"/>
      <point x="460" y="700"/>
      <point x="448" y="688"/>
      <point x="448" y="673" type="curve" smooth="yes"/>
      <point x="448" y="463" type="line"/>
      <point x="432" y="463" type="line"/>
      <point x="310" y="678" type="line" smooth="yes"/>
      <point x="304" y="689"/>
      <point x="292" y="700"/>
      <point x="270" y="700" type="curve" smooth="yes"/>
      <point x="49" y="700" type="line" smooth="yes"/>
      <point x="37" y="700"/>
      <point x="27" y="690"/>
      <point x="27" y="678" type="curve" smooth="yes"/>
      <point x="27" y="674"/>
      <point x="28" y="670"/>
      <point x="30" y="667" type="curve" smooth="yes"/>
      <point x="210" y="365" type="line"/>
      <point x="13" y="33" type="line" smooth="yes"/>
      <point x="11" y="30"/>
      <point x="10" y="25"/>
      <point x="10" y="22" type="curve" smooth="yes"/>
      <point x="10" y="10"/>
      <point x="20" y="0"/>
    </contour>
  </outline>
</glyph>
<glyph name="Ze-cy" format="2">
  <advance width="715"/>
  <unicode hex="0417"/>
  <guideline x="55"/>
  <anchor x="368" y="0" name="bottom"/>
  <anchor x="360" y="700" name="top"/>
  <outline>
    <contour>
      <point x="360" y="-10" type="curve" smooth="yes"/>
      <point x="562" y="-10"/>
      <point x="687" y="77"/>
      <point x="687" y="209" type="curve" smooth="yes"/>
      <point x="687" y="260"/>
      <point x="668" y="330"/>
      <point x="590" y="368" type="curve"/>
      <point x="655" y="403"/>
      <point x="668" y="460"/>
      <point x="668" y="501" type="curve" smooth="yes"/>
      <point x="668" y="618"/>
      <point x="541" y="710"/>
      <point x="360" y="710" type="curve" smooth="yes"/>
      <point x="119" y="710"/>
      <point x="50" y="589"/>
      <point x="40" y="501" type="curve" smooth="yes"/>
      <point x="39" y="489"/>
      <point x="50" y="479"/>
      <point x="62" y="479" type="curve" smooth="yes"/>
      <point x="260" y="479" type="line" smooth="yes"/>
      <point x="278" y="479"/>
      <point x="284" y="484"/>
      <point x="292" y="495" type="curve" smooth="yes"/>
      <point x="297" y="502"/>
      <point x="314" y="515"/>
      <point x="354" y="515" type="curve" smooth="yes"/>
      <point x="400" y="515"/>
      <point x="412" y="496"/>
      <point x="412" y="474" type="curve" smooth="yes"/>
      <point x="412" y="448"/>
      <point x="390" y="438"/>
      <point x="357" y="438" type="curve" smooth="yes"/>
      <point x="282" y="438" type="line" smooth="yes"/>
      <point x="267" y="438"/>
      <point x="255" y="424"/>
      <point x="255" y="409" type="curve" smooth="yes"/>
      <point x="255" y="289" type="line" smooth="yes"/>
      <point x="255" y="274"/>
      <point x="267" y="260"/>
      <point x="282" y="260" type="curve" smooth="yes"/>
      <point x="357" y="260" type="line" smooth="yes"/>
      <point x="404" y="260"/>
      <point x="427" y="249"/>
      <point x="427" y="221" type="curve" smooth="yes"/>
      <point x="427" y="196"/>
      <point x="407" y="183"/>
      <point x="354" y="183" type="curve" smooth="yes"/>
      <point x="318" y="183"/>
      <point x="300" y="190"/>
      <point x="287" y="203" type="curve" smooth="yes"/>
      <point x="278" y="212"/>
      <point x="271" y="219"/>
      <point x="253" y="219" type="curve" smooth="yes"/>
      <point x="57" y="219" type="line" smooth="yes"/>
      <point x="45" y="219"/>
      <point x="34" y="209"/>
      <point x="35" y="197" type="curve" smooth="yes"/>
      <point x="45" y="108"/>
      <point x="119" y="-10"/>
    </contour>
  </outline>
</glyph>
<glyph name="Ka-cy" format="2">
  <advance width="753"/>
  <unicode hex="041A"/>
  <anchor x="443" y="0" name="bottomright"/>
  <anchor x="320" y="350" name="center"/>
  <anchor x="363" y="700" name="top"/>
  <outline>
    <contour>
      <point x="82" y="0" type="curve" smooth="yes"/>
      <point x="278" y="0" type="line" smooth="yes"/>
      <point x="293" y="0"/>
      <point x="305" y="12"/>
      <point x="305" y="27" type="curve" smooth="yes"/>
      <point x="305" y="243" type="line"/>
      <point x="329" y="243" type="line"/>
      <point x="452" y="23" type="line" smooth="yes"/>
      <point x="456" y="17"/>
      <point x="466" y="0"/>
      <point x="493" y="0" type="curve" smooth="yes"/>
      <point x="721" y="0" type="line" smooth="yes"/>
      <point x="733" y="0"/>
      <point x="743" y="10"/>
      <point x="743" y="22" type="curve" smooth="yes"/>
      <point x="743" y="25"/>
      <point x="742" y="30"/>
      <point x="740" y="33" type="curve" smooth="yes"/>
      <point x="543" y="365" type="line"/>
      <point x="723" y="667" type="line" smooth="yes"/>
      <point x="725" y="670"/>
      <point x="726" y="674"/>
      <point x="726" y="678" type="curve" smooth="yes"/>
      <point x="726" y="690"/>
      <point x="716" y="700"/>
      <point x="704" y="700" type="curve" smooth="yes"/>
      <point x="483" y="700" type="line" smooth="yes"/>
      <point x="461" y="700"/>
      <point x="449" y="689"/>
      <point x="443" y="678" type="curve" smooth="yes"/>
      <point x="321" y="463" type="line"/>
      <point x="305" y="463" type="line"/>
      <point x="305" y="673" type="line" smooth="yes"/>
      <point x="305" y="688"/>
      <point x="293" y="700"/>
      <point x="278" y="700" type="curve" smooth="yes"/>
      <point x="82" y="700" type="line" smooth="yes"/>
      <point x="67" y="700"/>
      <point x="55" y="688"/>
      <point x="55" y="673" type="curve" smooth="yes"/>
      <point x="55" y="27" type="line" smooth="yes"/>
      <point x="55" y="11"/>
      <point x="67" y="0"/>
    </contour>
  </outline>
</glyph>
<glyph name="El-cy" format="2">
  <advance width="813"/>
  <unicode hex="041B"/>
  <guideline x="17" y="268" angle="0"/>
  <outline>
    <contour>
      <point x="535" y="0" type="curve" smooth="yes"/>
      <point x="731" y="0" type="line" smooth="yes"/>
      <point x="746" y="0"/>
      <point x="758" y="12"/>
      <point x="758" y="27" type="curve" smooth="yes"/>
      <point x="758" y="673" type="line" smooth="yes"/>
      <point x="758" y="688"/>
      <point x="746" y="700"/>
      <point x="731" y="700" type="curve" smooth="yes"/>
      <point x="163" y="700" type="line" smooth="yes"/>
      <point x="148" y="700"/>
      <point x="136" y="688"/>
      <point x="136" y="673" type="curve" smooth="yes"/>
      <point x="136" y="481" type="line" smooth="yes"/>
      <point x="136" y="357"/>
      <point x="130" y="225"/>
      <point x="62" y="212" type="curve" smooth="yes"/>
      <point x="46" y="209"/>
      <point x="35" y="200"/>
      <point x="35" y="185" type="curve" smooth="yes"/>
      <point x="35" y="27" type="line" smooth="yes"/>
      <point x="35" y="12"/>
      <point x="48" y="0"/>
      <point x="63" y="0" type="curve" smooth="yes"/>
      <point x="340" y="0"/>
      <point x="376" y="127"/>
      <point x="376" y="449" type="curve" smooth="yes"/>
      <point x="376" y="480" type="line"/>
      <point x="508" y="480" type="line"/>
      <point x="508" y="27" type="line" smooth="yes"/>
      <point x="508" y="12"/>
      <point x="520" y="0"/>
    </contour>
  </outline>
</glyph>
<glyph name="Pe-cy" format="2">
  <advance width="772"/>
  <unicode hex="041F"/>
  <anchor x="467" y="0" name="bottomright"/>
  <outline>
    <contour>
      <point x="82" y="0" type="curve" smooth="yes"/>
      <point x="278" y="0" type="line" smooth="yes"/>
      <point x="293" y="0"/>
      <point x="305" y="12"/>
      <point x="305" y="27" type="curve" smooth="yes"/>
      <point x="305" y="480" type="line"/>
      <point x="467" y="480" type="line"/>
      <point x="467" y="27" type="line" smooth="yes"/>
      <point x="467" y="12"/>
      <point x="479" y="0"/>
      <point x="494" y="0" type="curve" smooth="yes"/>
      <point x="690" y="0" type="line" smooth="yes"/>
      <point x="705" y="0"/>
      <point x="717" y="12"/>
      <point x="717" y="27" type="curve" smooth="yes"/>
      <point x="717" y="673" type="line" smooth="yes"/>
      <point x="717" y="688"/>
      <point x="705" y="700"/>
      <point x="690" y="700" type="curve" smooth="yes"/>
      <point x="82" y="700" type="line" smooth="yes"/>
      <point x="67" y="700"/>
      <point x="55" y="688"/>
      <point x="55" y="673" type="curve" smooth="yes"/>
      <point x="55" y="27" type="line" smooth="yes"/>
      <point x="55" y="11"/>
      <point x="67" y="0"/>
    </contour>
  </outline>
</glyph>
<glyph name="Ef-cy" format="2">
  <advance width="989"/>
  <unicode hex="0424"/>
  <outline>
    <contour>
      <point x="396" y="-32" type="curve" smooth="yes"/>
      <point x="592" y="-32" type="line" smooth="yes"/>
      <point x="607" y="-32"/>
      <point x="619" y="-20"/>
      <point x="619" y="-5" type="curve" smooth="yes"/>
      <point x="619" y="55" type="line"/>
      <point x="819" y="55"/>
      <point x="941" y="148"/>
      <point x="952" y="325" type="curve" smooth="yes"/>
      <point x="954" y="359"/>
      <point x="954" y="369"/>
      <point x="952" y="403" type="curve" smooth="yes"/>
      <point x="943" y="576"/>
      <point x="816" y="677"/>
      <point x="619" y="677" type="curve"/>
      <point x="619" y="724" type="line" smooth="yes"/>
      <point x="619" y="739"/>
      <point x="607" y="751"/>
      <point x="592" y="751" type="curve" smooth="yes"/>
      <point x="396" y="751" type="line" smooth="yes"/>
      <point x="381" y="751"/>
      <point x="369" y="739"/>
      <point x="369" y="724" type="curve" smooth="yes"/>
      <point x="369" y="677" type="line"/>
      <point x="172" y="677"/>
      <point x="45" y="576"/>
      <point x="36" y="403" type="curve"/>
      <point x="35" y="394"/>
      <point x="35" y="334"/>
      <point x="36" y="325" type="curve"/>
      <point x="47" y="148"/>
      <point x="169" y="55"/>
      <point x="369" y="55" type="curve"/>
      <point x="369" y="-5" type="line" smooth="yes"/>
      <point x="369" y="-20"/>
      <point x="381" y="-32"/>
    </contour>
    <contour>
      <point x="371" y="250" type="line"/>
      <point x="322" y="250"/>
      <point x="298" y="276"/>
      <point x="295" y="331" type="curve" smooth="yes"/>
      <point x="295" y="354"/>
      <point x="295" y="378"/>
      <point x="295" y="401" type="curve" smooth="yes"/>
      <point x="298" y="455"/>
      <point x="323" y="482"/>
      <point x="371" y="482" type="curve"/>
    </contour>
    <contour>
      <point x="617" y="250" type="curve"/>
      <point x="617" y="482" type="line"/>
      <point x="665" y="482"/>
      <point x="690" y="455"/>
      <point x="693" y="401" type="curve"/>
      <point x="694" y="393"/>
      <point x="694" y="340"/>
      <point x="693" y="331" type="curve"/>
      <point x="690" y="276"/>
      <point x="666" y="250"/>
    </contour>
  </outline>
</glyph>
<glyph name="Sha-cy" format="2">
  <advance width="1013"/>
  <unicode hex="0428"/>
  <outline>
    <contour>
      <point x="82" y="0" type="curve" smooth="yes"/>
      <point x="931" y="0" type="line" smooth="yes"/>
      <point x="946" y="0"/>
      <point x="958" y="12"/>
      <point x="958" y="27" type="curve" smooth="yes"/>
      <point x="958" y="673" type="line" smooth="yes"/>
      <point x="958" y="688"/>
      <point x="946" y="700"/>
      <point x="931" y="700" type="curve" smooth="yes"/>
      <point x="735" y="700" type="line" smooth="yes"/>
      <point x="720" y="700"/>
      <point x="708" y="688"/>
      <point x="708" y="673" type="curve" smooth="yes"/>
      <point x="708" y="220" type="line"/>
      <point x="632" y="220" type="line"/>
      <point x="632" y="673" type="line" smooth="yes"/>
      <point x="632" y="688"/>
      <point x="620" y="700"/>
      <point x="605" y="700" type="curve" smooth="yes"/>
      <point x="409" y="700" type="line" smooth="yes"/>
      <point x="394" y="700"/>
      <point x="382" y="688"/>
      <point x="382" y="673" type="curve" smooth="yes"/>
      <point x="382" y="220" type="line"/>
      <point x="305" y="220" type="line"/>
      <point x="305" y="673" type="line" smooth="yes"/>
      <point x="305" y="688"/>
      <point x="293" y="700"/>
      <point x="278" y="700" type="curve" smooth="yes"/>
      <point x="82" y="700" type="line" smooth="yes"/>
      <point x="67" y="700"/>
      <point x="55" y="689"/>
      <point x="55" y="673" type="curve" smooth="yes"/>
      <point x="55" y="27" type="line" smooth="yes"/>
      <point x="55" y="12"/>
      <point x="67" y="0"/>
    </contour>
  </outline>
</glyph>
<glyph name="zhe-cy" format="2">
  <advance width="1013"/>
  <unicode hex="0436"/>
  <anchor x="722" y="0" name="bottomright"/>
  <anchor x="507" y="520" name="top"/>
  <outline>
    <contour>
      <point x="39" y="0" type="curve" smooth="yes"/>
      <point x="249" y="0" type="line" smooth="yes"/>
      <point x="269" y="0"/>
      <point x="278" y="14"/>
      <point x="280" y="17" type="curve" smooth="yes"/>
      <point x="375" y="175" type="line"/>
      <point x="392" y="175" type="line"/>
      <point x="392" y="27" type="line" smooth="yes"/>
      <point x="392" y="12"/>
      <point x="404" y="0"/>
      <point x="419" y="0" type="curve" smooth="yes"/>
      <point x="594" y="0" type="line" smooth="yes"/>
      <point x="609" y="0"/>
      <point x="621" y="12"/>
      <point x="621" y="27" type="curve" smooth="yes"/>
      <point x="621" y="175" type="line"/>
      <point x="638" y="175" type="line"/>
      <point x="733" y="17" type="line" smooth="yes"/>
      <point x="735" y="14"/>
      <point x="744" y="0"/>
      <point x="764" y="0" type="curve" smooth="yes"/>
      <point x="974" y="0" type="line" smooth="yes"/>
      <point x="987" y="0"/>
      <point x="998" y="11"/>
      <point x="998" y="24" type="curve" smooth="yes"/>
      <point x="998" y="30"/>
      <point x="996" y="34"/>
      <point x="994" y="37" type="curve" smooth="yes"/>
      <point x="842" y="266" type="line"/>
      <point x="969" y="481" type="line" smooth="yes"/>
      <point x="971" y="484"/>
      <point x="974" y="490"/>
      <point x="974" y="496" type="curve" smooth="yes"/>
      <point x="974" y="509"/>
      <point x="963" y="520"/>
      <point x="950" y="520" type="curve" smooth="yes"/>
      <point x="758" y="520" type="line" smooth="yes"/>
      <point x="740" y="520"/>
      <point x="732" y="508"/>
      <point x="729" y="503" type="curve" smooth="yes"/>
      <point x="643" y="350" type="line"/>
      <point x="621" y="350" type="line"/>
      <point x="621" y="493" type="line" smooth="yes"/>
      <point x="621" y="508"/>
      <point x="609" y="520"/>
      <point x="594" y="520" type="curve" smooth="yes"/>
      <point x="419" y="520" type="line" smooth="yes"/>
      <point x="404" y="520"/>
      <point x="392" y="508"/>
      <point x="392" y="493" type="curve" smooth="yes"/>
      <point x="392" y="350" type="line"/>
      <point x="370" y="350" type="line"/>
      <point x="284" y="503" type="line" smooth="yes"/>
      <point x="281" y="508"/>
      <point x="273" y="520"/>
      <point x="255" y="520" type="curve" smooth="yes"/>
      <point x="63" y="520" type="line" smooth="yes"/>
      <point x="50" y="520"/>
      <point x="39" y="509"/>
      <point x="39" y="496" type="curve" smooth="yes"/>
      <point x="39" y="490"/>
      <point x="42" y="484"/>
      <point x="44" y="481" type="curve" smooth="yes"/>
      <point x="171" y="266" type="line"/>
      <point x="19" y="37" type="line" smooth="yes"/>
      <point x="17" y="34"/>
      <point x="15" y="30"/>
      <point x="15" y="24" type="curve" smooth="yes"/>
      <point x="15" y="11"/>
      <point x="26" y="0"/>
    </contour>
  </outline>
</glyph>
<glyph name="ii-cy" format="2">
  <advance width="663"/>
  <unicode hex="0438"/>
  <anchor x="425" y="0" name="bottomright"/>
  <anchor x="352" y="520" name="top"/>
  <outline>
    <contour>
      <point x="72" y="0" type="curve" smooth="yes"/>
      <point x="231" y="0" type="line" smooth="yes"/>
      <point x="243" y="0"/>
      <point x="253" y="6"/>
      <point x="260" y="17" type="curve" smooth="yes"/>
      <point x="460" y="324" type="line"/>
      <point x="399" y="342" type="line"/>
      <point x="399" y="27" type="line" smooth="yes"/>
      <point x="399" y="12"/>
      <point x="411" y="0"/>
      <point x="426" y="0" type="curve" smooth="yes"/>
      <point x="605" y="0" type="line" smooth="yes"/>
      <point x="620" y="0"/>
      <point x="632" y="12"/>
      <point x="632" y="27" type="curve" smooth="yes"/>
      <point x="632" y="493" type="line" smooth="yes"/>
      <point x="632" y="508"/>
      <point x="620" y="520"/>
      <point x="605" y="520" type="curve" smooth="yes"/>
      <point x="446" y="520" type="line" smooth="yes"/>
      <point x="434" y="520"/>
      <point x="424" y="514"/>
      <point x="417" y="503" type="curve" smooth="yes"/>
      <point x="217" y="196" type="line"/>
      <point x="278" y="178" type="line"/>
      <point x="278" y="493" type="line" smooth="yes"/>
      <point x="278" y="508"/>
      <point x="266" y="520"/>
      <point x="251" y="520" type="curve" smooth="yes"/>
      <point x="72" y="520" type="line" smooth="yes"/>
      <point x="57" y="520"/>
      <point x="45" y="508"/>
      <point x="45" y="493" type="curve" smooth="yes"/>
      <point x="45" y="27" type="line" smooth="yes"/>
      <point x="45" y="12"/>
      <point x="57" y="0"/>
    </contour>
  </outline>
</glyph>
<glyph name="pe-cy" format="2">
  <advance width="663"/>
  <unicode hex="043F"/>
  <anchor x="378" y="0" name="bottomright"/>
  <outline>
    <contour>
      <point x="72" y="0" type="curve" smooth="yes"/>
      <point x="251" y="0" type="line" smooth="yes"/>
      <point x="266" y="0"/>
      <point x="278" y="12"/>
      <point x="278" y="27" type="curve" smooth="yes"/>
      <point x="278" y="345" type="line"/>
      <point x="378" y="345" type="line"/>
      <point x="378" y="27" type="line" smooth="yes"/>
      <point x="378" y="12"/>
      <point x="390" y="0"/>
      <point x="405" y="0" type="curve" smooth="yes"/>
      <point x="584" y="0" type="line" smooth="yes"/>
      <point x="599" y="0"/>
      <point x="611" y="12"/>
      <point x="611" y="27" type="curve" smooth="yes"/>
      <point x="611" y="493" type="line" smooth="yes"/>
      <point x="611" y="508"/>
      <point x="599" y="520"/>
      <point x="584" y="520" type="curve" smooth="yes"/>
      <point x="72" y="520" type="line" smooth="yes"/>
      <point x="57" y="520"/>
      <point x="45" y="508"/>
      <point x="45" y="493" type="curve" smooth="yes"/>
      <point x="45" y="27" type="line" smooth="yes"/>
      <point x="45" y="12"/>
      <point x="57" y="0"/>
    </contour>
  </outline>
</glyph>
<glyph name="te-cy" format="2">
  <advance width="579"/>
  <unicode hex="0442"/>
  <outline>
    <contour>
      <point x="202" y="0" type="curve" smooth="yes"/>
      <point x="377" y="0" type="line" smooth="yes"/>
      <point x="392" y="0"/>
      <point x="404" y="12"/>
      <point x="404" y="27" type="curve" smooth="yes"/>
      <point x="404" y="345" type="line"/>
      <point x="537" y="345" type="line" smooth="yes"/>
      <point x="552" y="345"/>
      <point x="564" y="357"/>
      <point x="564" y="372" type="curve" smooth="yes"/>
      <point x="564" y="493" type="line" smooth="yes"/>
      <point x="564" y="508"/>
      <point x="552" y="520"/>
      <point x="537" y="520" type="curve" smooth="yes"/>
      <point x="42" y="520" type="line" smooth="yes"/>
      <point x="27" y="520"/>
      <point x="15" y="508"/>
      <point x="15" y="493" type="curve" smooth="yes"/>
      <point x="15" y="372" type="line" smooth="yes"/>
      <point x="15" y="357"/>
      <point x="27" y="345"/>
      <point x="42" y="345" type="curve" smooth="yes"/>
      <point x="175" y="345" type="line"/>
      <point x="175" y="27" type="line" smooth="yes"/>
      <point x="175" y="12"/>
      <point x="187" y="0"/>
    </contour>
  </outline>
</glyph>
<glyph name="ef-cy" format="2">
  <advance width="883"/>
  <unicode hex="0444"/>
  <guideline x="1422"/>
  <outline>
    <contour>
      <point x="352" y="-190" type="curve" smooth="yes"/>
      <point x="531" y="-190" type="line" smooth="yes"/>
      <point x="546" y="-190"/>
      <point x="558" y="-178"/>
      <point x="558" y="-163" type="curve" smooth="yes"/>
      <point x="558" y="0" type="line"/>
      <point x="745" y="0"/>
      <point x="842" y="73"/>
      <point x="852" y="213" type="curve" smooth="yes"/>
      <point x="854" y="244"/>
      <point x="854" y="276"/>
      <point x="852" y="307" type="curve" smooth="yes"/>
      <point x="842" y="447"/>
      <point x="733" y="520"/>
      <point x="558" y="520" type="curve"/>
      <point x="558" y="683" type="line" smooth="yes"/>
      <point x="558" y="698"/>
      <point x="546" y="710"/>
      <point x="531" y="710" type="curve" smooth="yes"/>
      <point x="352" y="710" type="line" smooth="yes"/>
      <point x="337" y="710"/>
      <point x="325" y="698"/>
      <point x="325" y="683" type="curve" smooth="yes"/>
      <point x="325" y="520" type="line"/>
      <point x="150" y="520"/>
      <point x="41" y="447"/>
      <point x="31" y="307" type="curve" smooth="yes"/>
      <point x="29" y="276"/>
      <point x="29" y="244"/>
      <point x="31" y="213" type="curve" smooth="yes"/>
      <point x="41" y="73"/>
      <point x="138" y="0"/>
      <point x="325" y="0" type="curve"/>
      <point x="325" y="-163" type="line" smooth="yes"/>
      <point x="325" y="-178"/>
      <point x="337" y="-190"/>
    </contour>
    <contour>
      <point x="327" y="160" type="line"/>
      <point x="280" y="160"/>
      <point x="267" y="174"/>
      <point x="262" y="228" type="curve" smooth="yes"/>
      <point x="261" y="243"/>
      <point x="261" y="275"/>
      <point x="262" y="292" type="curve" smooth="yes"/>
      <point x="264" y="340"/>
      <point x="277" y="360"/>
      <point x="327" y="360" type="curve"/>
    </contour>
    <contour>
      <point x="556" y="160" type="curve"/>
      <point x="556" y="360" type="line"/>
      <point x="603" y="360"/>
      <point x="619" y="343"/>
      <point x="621" y="292" type="curve" smooth="yes"/>
      <point x="622" y="275"/>
      <point x="622" y="243"/>
      <point x="621" y="228" type="curve" smooth="yes"/>
      <point x="617" y="177"/>
      <point x="606" y="160"/>
    </contour>
  </outline>
</glyph>
<glyph name="shcha-cy" format="2">
  <advance width="892"/>
  <unicode hex="0449"/>
  <guideline y="-110"/>
  <outline>
    <contour>
      <point x="675" y="-110" type="curve" smooth="yes"/>
      <point x="853" y="-110" type="line" smooth="yes"/>
      <point x="868" y="-110"/>
      <point x="880" y="-98"/>
      <point x="880" y="-83" type="curve" smooth="yes"/>
      <point x="880" y="148" type="line" smooth="yes"/>
      <point x="880" y="163"/>
      <point x="868" y="175"/>
      <point x="853" y="175" type="curve" smooth="yes"/>
      <point x="815" y="175" type="line"/>
      <point x="815" y="493" type="line" smooth="yes"/>
      <point x="815" y="508"/>
      <point x="803" y="520"/>
      <point x="788" y="520" type="curve" smooth="yes"/>
      <point x="619" y="520" type="line" smooth="yes"/>
      <point x="604" y="520"/>
      <point x="592" y="508"/>
      <point x="592" y="493" type="curve" smooth="yes"/>
      <point x="592" y="175" type="line"/>
      <point x="534" y="175" type="line"/>
      <point x="534" y="493" type="line" smooth="yes"/>
      <point x="534" y="508"/>
      <point x="522" y="520"/>
      <point x="507" y="520" type="curve" smooth="yes"/>
      <point x="353" y="520" type="line" smooth="yes"/>
      <point x="338" y="520"/>
      <point x="326" y="508"/>
      <point x="326" y="493" type="curve" smooth="yes"/>
      <point x="326" y="175" type="line"/>
      <point x="268" y="175" type="line"/>
      <point x="268" y="493" type="line" smooth="yes"/>
      <point x="268" y="508"/>
      <point x="256" y="520"/>
      <point x="241" y="520" type="curve" smooth="yes"/>
      <point x="72" y="520" type="line" smooth="yes"/>
      <point x="57" y="520"/>
      <point x="45" y="508"/>
      <point x="45" y="493" type="curve" smooth="yes"/>
      <point x="45" y="27" type="line" smooth="yes"/>
      <point x="45" y="12"/>
      <point x="57" y="0"/>
      <point x="72" y="0" type="curve" smooth="yes"/>
      <point x="648" y="0" type="line"/>
      <point x="648" y="-83" type="line" smooth="yes"/>
      <point x="648" y="-98"/>
      <point x="660" y="-110"/>
    </contour>
  </outline>
</glyph>
<glyph name="hardsign-cy" format="2">
  <advance width="715"/>
  <unicode hex="044A"/>
  <outline>
    <contour>
      <point x="179" y="0" type="curve" smooth="yes"/>
      <point x="466" y="0" type="line" smooth="yes"/>
      <point x="599" y="0"/>
      <point x="690" y="68"/>
      <point x="690" y="184" type="curve" smooth="yes"/>
      <point x="690" y="300"/>
      <point x="599" y="369"/>
      <point x="466" y="369" type="curve" smooth="yes"/>
      <point x="386" y="369" type="line"/>
      <point x="386" y="493" type="line" smooth="yes"/>
      <point x="386" y="508"/>
      <point x="374" y="520"/>
      <point x="359" y="520" type="curve" smooth="yes"/>
      <point x="42" y="520" type="line" smooth="yes"/>
      <point x="27" y="520"/>
      <point x="15" y="508"/>
      <point x="15" y="493" type="curve" smooth="yes"/>
      <point x="15" y="372" type="line" smooth="yes"/>
      <point x="15" y="357"/>
      <point x="27" y="345"/>
      <point x="42" y="345" type="curve" smooth="yes"/>
      <point x="152" y="345" type="line"/>
      <point x="152" y="27" type="line" smooth="yes"/>
      <point x="152" y="12"/>
      <point x="164" y="0"/>
    </contour>
    <contour>
      <point x="381" y="149" type="line"/>
      <point x="381" y="220" type="line"/>
      <point x="446" y="220" type="line" smooth="yes"/>
      <point x="473" y="220"/>
      <point x="486" y="207"/>
      <point x="486" y="184" type="curve" smooth="yes"/>
      <point x="486" y="161"/>
      <point x="473" y="149"/>
      <point x="446" y="149" type="curve" smooth="yes"/>
    </contour>
  </outline>
</glyph>
<glyph name="lje-cy" format="2">
  <advance width="943"/>
  <unicode hex="0459"/>
  <guideline x="400"/>
  <outline>
    <contour>
      <point x="407" y="0" type="curve" smooth="yes"/>
      <point x="694" y="0" type="line" smooth="yes"/>
      <point x="827" y="0"/>
      <point x="918" y="68"/>
      <point x="918" y="184" type="curve" smooth="yes"/>
      <point x="918" y="300"/>
      <point x="827" y="369"/>
      <point x="694" y="369" type="curve" smooth="yes"/>
      <point x="614" y="369" type="line"/>
      <point x="614" y="493" type="line" smooth="yes"/>
      <point x="614" y="508"/>
      <point x="602" y="520"/>
      <point x="587" y="520" type="curve" smooth="yes"/>
      <point x="129" y="520" type="line" smooth="yes"/>
      <point x="114" y="520"/>
      <point x="102" y="508"/>
      <point x="102" y="493" type="curve" smooth="yes"/>
      <point x="102" y="341" type="line" smooth="yes"/>
      <point x="102" y="232"/>
      <point x="100" y="194"/>
      <point x="52" y="185" type="curve" smooth="yes"/>
      <point x="36" y="182"/>
      <point x="25" y="173"/>
      <point x="25" y="158" type="curve" smooth="yes"/>
      <point x="25" y="27" type="line" smooth="yes"/>
      <point x="25" y="12"/>
      <point x="37" y="0"/>
      <point x="52" y="0" type="curve" smooth="yes"/>
      <point x="282" y="0"/>
      <point x="322" y="64"/>
      <point x="322" y="316" type="curve" smooth="yes"/>
      <point x="322" y="345" type="line"/>
      <point x="380" y="345" type="line"/>
      <point x="380" y="27" type="line" smooth="yes"/>
      <point x="380" y="12"/>
      <point x="392" y="0"/>
    </contour>
    <contour>
      <point x="609" y="149" type="line"/>
      <point x="609" y="220" type="line"/>
      <point x="674" y="220" type="line" smooth="yes"/>
      <point x="701" y="220"/>
      <point x="714" y="207"/>
      <point x="714" y="184" type="curve" smooth="yes"/>
      <point x="714" y="161"/>
      <point x="701" y="149"/>
      <point x="674" y="149" type="curve" smooth="yes"/>
    </contour>
  </outline>
</glyph>
<glyph name="nje-cy" format="2">
  <advance width="940"/>
  <unicode hex="045A"/>
  <outline>
    <contour>
      <point x="72" y="0" type="curve" smooth="yes"/>
      <point x="251" y="0" type="line" smooth="yes"/>
      <point x="266" y="0"/>
      <point x="278" y="12"/>
      <point x="278" y="27" type="curve" smooth="yes"/>
      <point x="278" y="175" type="line"/>
      <point x="378" y="175" type="line"/>
      <point x="378" y="27" type="line" smooth="yes"/>
      <point x="378" y="12"/>
      <point x="390" y="0"/>
      <point x="405" y="0" type="curve" smooth="yes"/>
      <point x="691" y="0" type="line" smooth="yes"/>
      <point x="824" y="0"/>
      <point x="915" y="68"/>
      <point x="915" y="184" type="curve" smooth="yes"/>
      <point x="915" y="300"/>
      <point x="824" y="369"/>
      <point x="691" y="369" type="curve" smooth="yes"/>
      <point x="611" y="369" type="line"/>
      <point x="611" y="493" type="line" smooth="yes"/>
      <point x="611" y="508"/>
      <point x="599" y="520"/>
      <point x="584" y="520" type="curve" smooth="yes"/>
      <point x="405" y="520" type="line" smooth="yes"/>
      <point x="390" y="520"/>
      <point x="378" y="508"/>
      <point x="378" y="493" type="curve" smooth="yes"/>
      <point x="378" y="350" type="line"/>
      <point x="278" y="350" type="line"/>
      <point x="278" y="493" type="line" smooth="yes"/>
      <point x="278" y="508"/>
      <point x="266" y="520"/>
      <point x="251" y="520" type="curve" smooth="yes"/>
      <point x="72" y="520" type="line" smooth="yes"/>
      <point x="57" y="520"/>
      <point x="45" y="508"/>
      <point x="45" y="493" type="curve" smooth="yes"/>
      <point x="45" y="27" type="line" smooth="yes"/>
      <point x="45" y="12"/>
      <point x="57" y="0"/>
    </contour>
    <contour>
      <point x="606" y="149" type="line"/>
      <point x="606" y="220" type="line"/>
      <point x="671" y="220" type="line" smooth="yes"/>
      <point x="698" y="220"/>
      <point x="711" y="207"/>
      <point x="711" y="184" type="curve" smooth="yes"/>
      <point x="711" y="161"/>
      <point x="698" y="149"/>
      <point x="671" y="149" type="curve" smooth="yes"/>
    </contour>
  </outline>
</glyph>
<glyph name="Yusbig-cy" format="2">
  <advance width="1008"/>
  <unicode hex="046A"/>
  <guideline x="393" y="353" angle="0"/>
  <guideline x="302" y="447" angle="90"/>
  <guideline x="691" y="439" angle="90"/>
  <guideline x="380" y="400" angle="0"/>
  <outline>
    <contour>
      <point x="30" y="0" type="curve" smooth="yes"/>
      <point x="232" y="0" type="line" smooth="yes"/>
      <point x="257" y="0"/>
      <point x="269" y="7"/>
      <point x="273" y="23" type="curve"/>
      <point x="313" y="160" type="line" smooth="yes"/>
      <point x="322" y="192"/>
      <point x="340" y="208"/>
      <point x="365" y="208" type="curve" smooth="yes"/>
      <point x="379" y="208" type="line"/>
      <point x="379" y="27" type="line" smooth="yes"/>
      <point x="379" y="12"/>
      <point x="391" y="0"/>
      <point x="406" y="0" type="curve" smooth="yes"/>
      <point x="602" y="0" type="line" smooth="yes"/>
      <point x="617" y="0"/>
      <point x="629" y="12"/>
      <point x="629" y="27" type="curve" smooth="yes"/>
      <point x="629" y="208" type="line"/>
      <point x="643" y="208" type="line" smooth="yes"/>
      <point x="668" y="208"/>
      <point x="686" y="192"/>
      <point x="695" y="160" type="curve" smooth="yes"/>
      <point x="734" y="23" type="line" smooth="yes"/>
      <point x="738" y="7"/>
      <point x="750" y="0"/>
      <point x="775" y="0" type="curve" smooth="yes"/>
      <point x="977" y="0" type="line" smooth="yes"/>
      <point x="994" y="0"/>
      <point x="1001" y="19"/>
      <point x="996" y="33" type="curve" smooth="yes"/>
      <point x="927" y="242" type="line" smooth="yes"/>
      <point x="892" y="348"/>
      <point x="829" y="391"/>
      <point x="735" y="399" type="curve"/>
      <point x="727" y="399" type="line"/>
      <point x="981" y="662" type="line" smooth="yes"/>
      <point x="988" y="669"/>
      <point x="989" y="673"/>
      <point x="989" y="678" type="curve" smooth="yes"/>
      <point x="989" y="689"/>
      <point x="978" y="700"/>
      <point x="966" y="700" type="curve" smooth="yes"/>
      <point x="42" y="700" type="line" smooth="yes"/>
      <point x="30" y="700"/>
      <point x="21" y="689"/>
      <point x="21" y="677" type="curve" smooth="yes"/>
      <point x="21" y="672"/>
      <point x="22" y="668"/>
      <point x="25" y="665" type="curve" smooth="yes"/>
      <point x="270" y="398" type="line"/>
      <point x="262" y="398" type="line"/>
      <point x="175" y="390"/>
      <point x="114" y="347"/>
      <point x="80" y="242" type="curve" smooth="yes"/>
      <point x="11" y="33" type="line" smooth="yes"/>
      <point x="7" y="20"/>
      <point x="12" y="0"/>
    </contour>
    <contour>
      <point x="499" y="403" type="line"/>
      <point x="406" y="520" type="line"/>
      <point x="596" y="520" type="line"/>
    </contour>
  </outline>
</glyph>
<glyph name="yusbig-cy" format="2">
  <advance width="1013"/>
  <unicode hex="046B"/>
  <guideline x="507" y="320" angle="90"/>
  <guideline x="231" y="270" angle="0"/>
  <guideline x="772" y="376" angle="53.8759"/>
  <guideline x="241" y="376" angle="126.1241"/>
  <outline>
    <contour>
      <point x="39" y="0" type="curve" smooth="yes"/>
      <point x="249" y="0" type="line" smooth="yes"/>
      <point x="269" y="0"/>
      <point x="278" y="14"/>
      <point x="280" y="17" type="curve"/>
      <point x="367" y="163" type="line"/>
      <point x="371" y="171"/>
      <point x="381" y="175"/>
      <point x="390" y="175" type="curve"/>
      <point x="392" y="175" type="line"/>
      <point x="392" y="27" type="line" smooth="yes"/>
      <point x="392" y="12"/>
      <point x="404" y="0"/>
      <point x="419" y="0" type="curve" smooth="yes"/>
      <point x="594" y="0" type="line" smooth="yes"/>
      <point x="609" y="0"/>
      <point x="621" y="12"/>
      <point x="621" y="27" type="curve" smooth="yes"/>
      <point x="621" y="175" type="line"/>
      <point x="623" y="175" type="line"/>
      <point x="630" y="175"/>
      <point x="640" y="173"/>
      <point x="646" y="163" type="curve" smooth="yes"/>
      <point x="733" y="17" type="line"/>
      <point x="735" y="14"/>
      <point x="744" y="0"/>
      <point x="764" y="0" type="curve" smooth="yes"/>
      <point x="974" y="0" type="line" smooth="yes"/>
      <point x="987" y="0"/>
      <point x="998" y="11"/>
      <point x="998" y="24" type="curve" smooth="yes"/>
      <point x="998" y="30"/>
      <point x="996" y="34"/>
      <point x="994" y="37" type="curve" smooth="yes"/>
      <point x="903" y="175" type="line" smooth="yes"/>
      <point x="854" y="249"/>
      <point x="802" y="270"/>
      <point x="742" y="270" type="curve" smooth="yes"/>
      <point x="695" y="270" type="line"/>
      <point x="849" y="481" type="line"/>
      <point x="851" y="484"/>
      <point x="854" y="490"/>
      <point x="854" y="496" type="curve" smooth="yes"/>
      <point x="854" y="509"/>
      <point x="843" y="520"/>
      <point x="830" y="520" type="curve" smooth="yes"/>
      <point x="183" y="520" type="line" smooth="yes"/>
      <point x="170" y="520"/>
      <point x="159" y="509"/>
      <point x="159" y="496" type="curve" smooth="yes"/>
      <point x="159" y="490"/>
      <point x="162" y="484"/>
      <point x="164" y="481" type="curve"/>
      <point x="318" y="270" type="line"/>
      <point x="261" y="270" type="line" smooth="yes"/>
      <point x="211" y="270"/>
      <point x="159" y="249"/>
      <point x="106" y="168" type="curve" smooth="yes"/>
      <point x="19" y="37" type="line" smooth="yes"/>
      <point x="17" y="34"/>
      <point x="15" y="30"/>
      <point x="15" y="24" type="curve" smooth="yes"/>
      <point x="15" y="11"/>
      <point x="26" y="0"/>
    </contour>
    <contour>
      <point x="507" y="268" type="line"/>
      <point x="423" y="398" type="line"/>
      <point x="590" y="398" type="line"/>
    </contour>
  </outline>
</glyph>
<glyph name="gheupturn-cy" format="2">
  <advance width="484"/>
  <unicode hex="0491"/>
  <outline>
    <contour>
      <point x="437" y="630" type="curve" smooth="yes"/>
      <point x="258" y="630" type="line" smooth="yes"/>
      <point x="243" y="630"/>
      <point x="231" y="618"/>
      <point x="231" y="603" type="curve" smooth="yes"/>
      <point x="231" y="520" type="line"/>
      <point x="72" y="520" type="line" smooth="yes"/>
      <point x="57" y="520"/>
      <point x="45" y="508"/>
      <point x="45" y="493" type="curve" smooth="yes"/>
      <point x="45" y="27" type="line" smooth="yes"/>
      <point x="45" y="12"/>
      <point x="57" y="0"/>
      <point x="72" y="0" type="curve" smooth="yes"/>
      <point x="251" y="0" type="line" smooth="yes"/>
      <point x="266" y="0"/>
      <point x="278" y="12"/>
      <point x="278" y="27" type="curve" smooth="yes"/>
      <point x="278" y="345" type="line"/>
      <point x="437" y="345" type="line" smooth="yes"/>
      <point x="452" y="345"/>
      <point x="464" y="357"/>
      <point x="464" y="372" type="curve" smooth="yes"/>
      <point x="464" y="603" type="line" smooth="yes"/>
      <point x="464" y="618"/>
      <point x="452" y="630"/>
    </contour>
  </outline>
</glyph>
<glyph name="zedescender-cy" format="2">
  <advance width="598"/>
  <unicode hex="0499"/>
  <outline>
    <contour>
      <point x="223" y="-110" type="curve" smooth="yes"/>
      <point x="402" y="-110" type="line" smooth="yes"/>
      <point x="417" y="-110"/>
      <point x="429" y="-98"/>
      <point x="429" y="-83" type="curve" smooth="yes"/>
      <point x="429" y="48" type="line"/>
      <point x="196" y="48" type="line"/>
      <point x="196" y="-83" type="line" smooth="yes"/>
      <point x="196" y="-98"/>
      <point x="208" y="-110"/>
    </contour>
    <component base="ze-cy"/>
  </outline>
</glyph>
<glyph name="kaverticalstroke-cy" format="2">
  <advance width="756"/>
  <unicode hex="049D"/>
  <outline>
    <contour>
      <point x="72" y="0" type="curve" smooth="yes"/>
      <point x="247" y="0" type="line" smooth="yes"/>
      <point x="262" y="0"/>
      <point x="274" y="12"/>
      <point x="274" y="27" type="curve" smooth="yes"/>
      <point x="274" y="195" type="line"/>
      <point x="299" y="195" type="line"/>
      <point x="299" y="126" type="line" smooth="yes"/>
      <point x="299" y="111"/>
      <point x="311" y="99"/>
      <point x="326" y="99" type="curve" smooth="yes"/>
      <point x="338" y="99" type="line" smooth="yes"/>
      <point x="353" y="99"/>
      <point x="365" y="111"/>
      <point x="365" y="126" type="curve" smooth="yes"/>
      <point x="365" y="195" type="line"/>
      <point x="369" y="195" type="line"/>
      <point x="476" y="17" type="line" smooth="yes"/>
      <point x="482" y="8"/>
      <point x="491" y="0"/>
      <point x="507" y="0" type="curve" smooth="yes"/>
      <point x="717" y="0" type="line" smooth="yes"/>
      <point x="730" y="0"/>
      <point x="741" y="11"/>
      <point x="741" y="24" type="curve" smooth="yes"/>
      <point x="741" y="30"/>
      <point x="739" y="34"/>
      <point x="737" y="37" type="curve" smooth="yes"/>
      <point x="585" y="266" type="line"/>
      <point x="712" y="481" type="line" smooth="yes"/>
      <point x="714" y="484"/>
      <point x="717" y="490"/>
      <point x="717" y="496" type="curve" smooth="yes"/>
      <point x="717" y="509"/>
      <point x="706" y="520"/>
      <point x="693" y="520" type="curve" smooth="yes"/>
      <point x="501" y="520" type="line" smooth="yes"/>
      <point x="483" y="520"/>
      <point x="475" y="508"/>
      <point x="472" y="503" type="curve" smooth="yes"/>
      <point x="375" y="330" type="line"/>
      <point x="365" y="330" type="line"/>
      <point x="365" y="401" type="line" smooth="yes"/>
      <point x="365" y="416"/>
      <point x="353" y="428"/>
      <point x="338" y="428" type="curve" smooth="yes"/>
      <point x="326" y="428" type="line" smooth="yes"/>
      <point x="311" y="428"/>
      <point x="299" y="416"/>
      <point x="299" y="401" type="curve" smooth="yes"/>
      <point x="299" y="330" type="line"/>
      <point x="274" y="330" type="line"/>
      <point x="274" y="493" type="line" smooth="yes"/>
      <point x="274" y="508"/>
      <point x="262" y="520"/>
      <point x="247" y="520" type="curve" smooth="yes"/>
      <point x="72" y="520" type="line" smooth="yes"/>
      <point x="57" y="520"/>
      <point x="45" y="508"/>
      <point x="45" y="493" type="curve" smooth="yes"/>
      <point x="45" y="27" type="line" smooth="yes"/>
      <point x="45" y="12"/>
      <point x="57" y="0"/>
    </contour>
  </outline>
</glyph>
<glyph name="Enghe-cy" format="2">
  <advance width="961"/>
  <unicode hex="04A4"/>
  <outline>
    <contour>
      <point x="914" y="700" type="curve" smooth="yes"/>
      <point x="494" y="700" type="line" smooth="yes"/>
      <point x="479" y="700"/>
      <point x="467" y="688"/>
      <point x="467" y="673" type="curve" smooth="yes"/>
      <point x="467" y="463" type="line"/>
      <point x="305" y="463" type="line"/>
      <point x="305" y="673" type="line" smooth="yes"/>
      <point x="305" y="688"/>
      <point x="293" y="700"/>
      <point x="278" y="700" type="curve" smooth="yes"/>
      <point x="82" y="700" type="line" smooth="yes"/>
      <point x="67" y="700"/>
      <point x="55" y="688"/>
      <point x="55" y="673" type="curve" smooth="yes"/>
      <point x="55" y="27" type="line" smooth="yes"/>
      <point x="55" y="11"/>
      <point x="67" y="0"/>
      <point x="82" y="0" type="curve" smooth="yes"/>
      <point x="278" y="0" type="line" smooth="yes"/>
      <point x="293" y="0"/>
      <point x="305" y="12"/>
      <point x="305" y="27" type="curve" smooth="yes"/>
      <point x="305" y="243" type="line"/>
      <point x="467" y="243" type="line"/>
      <point x="467" y="27" type="line" smooth="yes"/>
      <point x="467" y="12"/>
      <point x="479" y="0"/>
      <point x="494" y="0" type="curve" smooth="yes"/>
      <point x="690" y="0" type="line" smooth="yes"/>
      <point x="705" y="0"/>
      <point x="717" y="12"/>
      <point x="717" y="27" type="curve" smooth="yes"/>
      <point x="717" y="495" type="line"/>
      <point x="914" y="495" type="line" smooth="yes"/>
      <point x="929" y="495"/>
      <point x="941" y="507"/>
      <point x="941" y="522" type="curve" smooth="yes"/>
      <point x="941" y="673" type="line" smooth="yes"/>
      <point x="941" y="688"/>
      <point x="929" y="700"/>
    </contour>
  </outline>
</glyph>
<glyph name="Ustraitstroke-cy" format="2">
  <advance width="710"/>
  <unicode hex="04B0"/>
  <outline>
    <contour>
      <point x="130" y="167" type="curve" smooth="yes"/>
      <point x="573" y="167" type="line" smooth="yes"/>
      <point x="588" y="167"/>
      <point x="600" y="179"/>
      <point x="600" y="194" type="curve" smooth="yes"/>
      <point x="600" y="265" type="line" smooth="yes"/>
      <point x="600" y="280"/>
      <point x="588" y="292"/>
      <point x="573" y="292" type="curve" smooth="yes"/>
      <point x="130" y="292" type="line" smooth="yes"/>
      <point x="115" y="292"/>
      <point x="103" y="280"/>
      <point x="103" y="265" type="curve" smooth="yes"/>
      <point x="103" y="194" type="line" smooth="yes"/>
      <point x="103" y="179"/>
      <point x="115" y="167"/>
    </contour>
    <component base="Ustrait-cy"/>
  </outline>
</glyph>
<glyph name="Cheverticalstroke-cy" format="2">
  <advance width="767"/>
  <unicode hex="04B8"/>
  <outline>
    <contour>
      <point x="480" y="0" type="curve" smooth="yes"/>
      <point x="676" y="0" type="line" smooth="yes"/>
      <point x="691" y="0"/>
      <point x="703" y="12"/>
      <point x="703" y="27" type="curve" smooth="yes"/>
      <point x="703" y="673" type="line" smooth="yes"/>
      <point x="703" y="688"/>
      <point x="691" y="700"/>
      <point x="676" y="700" type="curve" smooth="yes"/>
      <point x="480" y="700" type="line" smooth="yes"/>
      <point x="465" y="700"/>
      <point x="453" y="688"/>
      <point x="453" y="673" type="curve" smooth="yes"/>
      <point x="453" y="390" type="line" smooth="yes"/>
      <point x="453" y="376"/>
      <point x="409" y="364"/>
      <point x="375" y="364" type="curve" smooth="yes"/>
      <point x="314" y="364"/>
      <point x="288" y="384"/>
      <point x="288" y="431" type="curve" smooth="yes"/>
      <point x="288" y="673" type="line" smooth="yes"/>
      <point x="288" y="688"/>
      <point x="276" y="700"/>
      <point x="261" y="700" type="curve" smooth="yes"/>
      <point x="65" y="700" type="line" smooth="yes"/>
      <point x="50" y="700"/>
      <point x="38" y="688"/>
      <point x="38" y="673" type="curve" smooth="yes"/>
      <point x="38" y="461" type="line" smooth="yes"/>
      <point x="38" y="265"/>
      <point x="122" y="176"/>
      <point x="321" y="176" type="curve" smooth="yes"/>
      <point x="374" y="176"/>
      <point x="418" y="186"/>
      <point x="453" y="206" type="curve"/>
      <point x="453" y="27" type="line" smooth="yes"/>
      <point x="453" y="12"/>
      <point x="465" y="0"/>
    </contour>
    <contour>
      <point x="375" y="97" type="curve" smooth="yes"/>
      <point x="387" y="97" type="line" smooth="yes"/>
      <point x="402" y="97"/>
      <point x="414" y="109"/>
      <point x="414" y="124" type="curve" smooth="yes"/>
      <point x="414" y="429" type="line" smooth="yes"/>
      <point x="414" y="444"/>
      <point x="402" y="456"/>
      <point x="387" y="456" type="curve" smooth="yes"/>
      <point x="375" y="456" type="line" smooth="yes"/>
      <point x="360" y="456"/>
      <point x="348" y="444"/>
      <point x="348" y="429" type="curve" smooth="yes"/>
      <point x="348" y="124" type="line" smooth="yes"/>
      <point x="348" y="109"/>
      <point x="360" y="97"/>
    </contour>
  </outline>
</glyph>
<glyph name="Shha-cy" format="2">
  <advance width="737"/>
  <unicode hex="04BA"/>
  <outline>
    <contour>
      <point x="287" y="700" type="curve" smooth="yes"/>
      <point x="91" y="700" type="line" smooth="yes"/>
      <point x="76" y="700"/>
      <point x="64" y="688"/>
      <point x="64" y="673" type="curve" smooth="yes"/>
      <point x="64" y="27" type="line" smooth="yes"/>
      <point x="64" y="12"/>
      <point x="76" y="0"/>
      <point x="91" y="0" type="curve" smooth="yes"/>
      <point x="287" y="0" type="line" smooth="yes"/>
      <point x="302" y="0"/>
      <point x="314" y="12"/>
      <point x="314" y="27" type="curve" smooth="yes"/>
      <point x="314" y="270" type="line" smooth="yes"/>
      <point x="314" y="284"/>
      <point x="352" y="296"/>
      <point x="382" y="296" type="curve" smooth="yes"/>
      <point x="429" y="296"/>
      <point x="449" y="276"/>
      <point x="449" y="229" type="curve" smooth="yes"/>
      <point x="449" y="27" type="line" smooth="yes"/>
      <point x="449" y="12"/>
      <point x="461" y="0"/>
      <point x="476" y="0" type="curve" smooth="yes"/>
      <point x="672" y="0" type="line" smooth="yes"/>
      <point x="687" y="0"/>
      <point x="699" y="12"/>
      <point x="699" y="27" type="curve" smooth="yes"/>
      <point x="699" y="239" type="line" smooth="yes"/>
      <point x="700" y="435"/>
      <point x="612" y="524"/>
      <point x="436" y="524" type="curve" smooth="yes"/>
      <point x="387" y="524"/>
      <point x="346" y="514"/>
      <point x="314" y="494" type="curve"/>
      <point x="314" y="673" type="line" smooth="yes"/>
      <point x="314" y="688"/>
      <point x="302" y="700"/>
    </contour>
  </outline>
</glyph>
<glyph name="Obarred-cy" format="2">
  <advance width="742"/>
  <unicode hex="04E8"/>
  <anchor x="371" y="700" name="top"/>
  <outline>
    <contour>
      <point x="163" y="289" type="curve" smooth="yes"/>
      <point x="578" y="289" type="line" smooth="yes"/>
      <point x="593" y="289"/>
      <point x="605" y="301"/>
      <point x="605" y="316" type="curve" smooth="yes"/>
      <point x="605" y="384" type="line" smooth="yes"/>
      <point x="605" y="399"/>
      <point x="593" y="411"/>
      <point x="578" y="411" type="curve" smooth="yes"/>
      <point x="163" y="411" type="line" smooth="yes"/>
      <point x="148" y="411"/>
      <point x="136" y="399"/>
      <point x="136" y="384" type="curve" smooth="yes"/>
      <point x="136" y="316" type="line" smooth="yes"/>
      <point x="136" y="301"/>
      <point x="148" y="289"/>
    </contour>
    <component base="O-cy"/>
  </outline>
</glyph>
<glyph name="uni05B8" format="2">
  <unicode hex="05B8"/>
  <anchor x="1" y="0" name="_bottom"/>
  <outline>
    <contour>
      <point x="128" y="-97" type="curve" smooth="yes"/>
      <point x="128" y="-160" type="line" smooth="yes"/>
      <point x="128" y="-173.4"/>
      <point x="119.4" y="-182"/>
      <point x="106" y="-182" type="curve" smooth="yes"/>
      <point x="46" y="-182" type="line"/>
      <point x="46" y="-239" type="line" smooth="yes"/>
      <point x="46" y="-252.4"/>
      <point x="37.4" y="-261"/>
      <point x="24" y="-261" type="curve" smooth="yes"/>
      <point x="-23" y="-261" type="line" smooth="yes"/>
      <point x="-36.4" y="-261"/>
      <point x="-45" y="-252.4"/>
      <point x="-45" y="-239" type="curve" smooth="yes"/>
      <point x="-45" y="-182" type="line"/>
      <point x="-102" y="-182" type="line" smooth="yes"/>
      <point x="-115.4" y="-182"/>
      <point x="-124" y="-173.4"/>
      <point x="-124" y="-160" type="curve" smooth="yes"/>
      <point x="-124" y="-97" type="line" smooth="yes"/>
      <point x="-124" y="-83.6"/>
      <point x="-115.4" y="-75"/>
      <point x="-102" y="-75" type="curve" smooth="yes"/>
      <point x="106" y="-75" type="line" smooth="yes"/>
      <point x="119.4" y="-75"/>
      <point x="128" y="-83.6"/>
    </contour>
  </outline>
</glyph>
<glyph name="uni05C7" format="2">
  <unicode hex="05C7"/>
  <outline>
    <contour>
      <point x="-45" y="-239" type="qcurve" smooth="yes"/>
      <point x="-45" y="-182" type="line"/>
      <point x="-102" y="-182" type="line" smooth="yes"/>
      <point x="-112" y="-182"/>
      <point x="-124" y="-170"/>
      <point x="-124" y="-160" type="qcurve" smooth="yes"/>
      <point x="-124" y="-97" type="line" smooth="yes"/>
      <point x="-124" y="-87"/>
      <point x="-112" y="-75"/>
      <point x="-102" y="-75" type="qcurve" smooth="yes"/>
      <point x="106" y="-75" type="line" smooth="yes"/>
      <point x="116" y="-75"/>
      <point x="128" y="-87"/>
      <point x="128" y="-97" type="qcurve" smooth="yes"/>
      <point x="128" y="-160" type="line" smooth="yes"/>
      <point x="128" y="-170"/>
      <point x="116" y="-182"/>
      <point x="106" y="-182" type="qcurve" smooth="yes"/>
      <point x="46" y="-182" type="line"/>
      <point x="46" y="-239" type="line" smooth="yes"/>
      <point x="46" y="-249"/>
      <point x="34" y="-261"/>
      <point x="24" y="-261" type="qcurve" smooth="yes"/>
      <point x="-23" y="-261" type="line" smooth="yes"/>
      <point x="-33" y="-261"/>
      <point x="-45" y="-249"/>
    </contour>
  </outline>
</glyph>
<glyph name="vav-hb" format="2">
  <advance width="327"/>
  <unicode hex="05D5"/>
  <guideline y="571"/>
  <anchor x="162" y="0" name="bottom"/>
  <anchor x="20" y="0" name="bottomleft"/>
  <anchor x="-36" y="260" name="center"/>
  <anchor x="164" y="520" name="top"/>
  <anchor x="216" y="520" name="topleft"/>
  <outline>
    <contour>
      <point x="74" y="0" type="curve" smooth="yes"/>
      <point x="253" y="0" type="line" smooth="yes"/>
      <point x="268" y="0"/>
      <point x="280" y="12"/>
      <point x="280" y="27" type="curve"/>
      <point x="280" y="544" type="line" smooth="yes"/>
      <point x="280" y="559"/>
      <point x="268" y="571"/>
      <point x="253" y="571" type="curve" smooth="yes"/>
      <point x="74" y="571" type="line" smooth="yes"/>
      <point x="59" y="571"/>
      <point x="47" y="559"/>
      <point x="47" y="544" type="curve" smooth="yes"/>
      <point x="47" y="27" type="line" smooth="yes"/>
      <point x="47" y="12"/>
      <point x="59" y="0"/>
    </contour>
  </outline>
</glyph>
<glyph name="tet-hb" format="2">
  <advance width="661"/>
  <unicode hex="05D8"/>
  <guideline y="246"/>
  <anchor x="333" y="0" name="bottom"/>
  <anchor x="20" y="0" name="bottomleft"/>
  <anchor x="328" y="260" name="center"/>
  <anchor x="333" y="520" name="top"/>
  <anchor x="20" y="520" name="topleft"/>
  <outline>
    <contour>
      <point x="338" y="-10" type="curve" smooth="yes"/>
      <point x="536" y="-10"/>
      <point x="625" y="90"/>
      <point x="633" y="241" type="curve" smooth="yes"/>
      <point x="634" y="261"/>
      <point x="633" y="317"/>
      <point x="633" y="337" type="curve" smooth="yes"/>
      <point x="633" y="491"/>
      <point x="587" y="574"/>
      <point x="423" y="574" type="curve" smooth="yes"/>
      <point x="369" y="574"/>
      <point x="345" y="568"/>
      <point x="332" y="561" type="curve" smooth="yes"/>
      <point x="314" y="551"/>
      <point x="308" y="535"/>
      <point x="308" y="520" type="curve" smooth="yes"/>
      <point x="308" y="407" type="line" smooth="yes"/>
      <point x="308" y="387"/>
      <point x="324" y="377"/>
      <point x="341" y="383" type="curve" smooth="yes"/>
      <point x="349" y="386"/>
      <point x="366" y="390"/>
      <point x="381" y="390" type="curve" smooth="yes"/>
      <point x="408" y="390"/>
      <point x="417" y="351"/>
      <point x="417" y="302" type="curve" smooth="yes"/>
      <point x="417" y="281"/>
      <point x="417" y="268"/>
      <point x="417" y="246" type="curve" smooth="yes"/>
      <point x="417" y="196"/>
      <point x="385" y="175"/>
      <point x="337" y="175" type="curve" smooth="yes"/>
      <point x="288" y="175"/>
      <point x="243" y="191"/>
      <point x="243" y="246" type="curve" smooth="yes"/>
      <point x="243" y="544" type="line" smooth="yes"/>
      <point x="243" y="559"/>
      <point x="231" y="571"/>
      <point x="216" y="571" type="curve" smooth="yes"/>
      <point x="68" y="571" type="line" smooth="yes"/>
      <point x="53" y="571"/>
      <point x="41" y="559"/>
      <point x="41" y="544" type="curve" smooth="yes"/>
      <point x="41" y="241" type="line" smooth="yes"/>
      <point x="41" y="87"/>
      <point x="141" y="-10"/>
    </contour>
  </outline>
</glyph>
<glyph name="yod-hb" format="2">
  <advance width="323"/>
  <unicode hex="05D9"/>
  <anchor x="153" y="0" name="bottom"/>
  <anchor x="20" y="0" name="bottomleft"/>
  <anchor x="-19" y="260" name="center"/>
  <anchor x="162" y="520" name="top"/>
  <anchor x="20" y="520" name="topleft"/>
  <outline>
    <contour>
      <point x="72" y="240" type="curve" smooth="yes"/>
      <point x="251" y="240" type="line" smooth="yes"/>
      <point x="266" y="240"/>
      <point x="278" y="252"/>
      <point x="278" y="267" type="curve"/>
      <point x="278" y="544" type="line" smooth="yes"/>
      <point x="278" y="559"/>
      <point x="266" y="571"/>
      <point x="251" y="571" type="curve" smooth="yes"/>
      <point x="72" y="571" type="line" smooth="yes"/>
      <point x="57" y="571"/>
      <point x="45" y="559"/>
      <point x="45" y="544" type="curve" smooth="yes"/>
      <point x="45" y="267" type="line" smooth="yes"/>
      <point x="45" y="252"/>
      <point x="57" y="240"/>
    </contour>
  </outline>
</glyph>
<glyph name="nun-hb" format="2">
  <advance width="469"/>
  <unicode hex="05E0"/>
  <guideline y="321"/>
  <guideline x="25"/>
  <guideline x="100"/>
  <anchor x="235" y="0" name="bottom"/>
  <anchor x="20" y="0" name="bottomleft"/>
  <anchor x="109" y="260" name="center"/>
  <anchor x="228" y="520" name="top"/>
  <anchor x="20" y="520" name="topleft"/>
  <outline>
    <contour>
      <point x="59" y="0" type="curve" smooth="yes"/>
      <point x="387" y="0" type="line" smooth="yes"/>
      <point x="402" y="0"/>
      <point x="414" y="12"/>
      <point x="414" y="27" type="curve" smooth="yes"/>
      <point x="414" y="175" type="line"/>
      <point x="59" y="175" type="line" smooth="yes"/>
      <point x="44" y="175"/>
      <point x="32" y="163"/>
      <point x="32" y="148" type="curve" smooth="yes"/>
      <point x="32" y="27" type="line" smooth="yes"/>
      <point x="32" y="12"/>
      <point x="44" y="0"/>
    </contour>
    <contour>
      <point x="238" y="0" type="curve" smooth="yes"/>
      <point x="417" y="0" type="line" smooth="yes"/>
      <point x="432" y="0"/>
      <point x="444" y="12"/>
      <point x="444" y="27" type="curve" smooth="yes"/>
      <point x="434" y="327" type="line" smooth="yes"/>
      <point x="428" y="517"/>
      <point x="327" y="581"/>
      <point x="132" y="581" type="curve" smooth="yes"/>
      <point x="69" y="581" type="line" smooth="yes"/>
      <point x="54" y="581"/>
      <point x="42" y="569"/>
      <point x="42" y="554" type="curve" smooth="yes"/>
      <point x="42" y="435" type="line" smooth="yes"/>
      <point x="42" y="420"/>
      <point x="54" y="408"/>
      <point x="69" y="408" type="curve" smooth="yes"/>
      <point x="127" y="408" type="line" smooth="yes"/>
      <point x="176" y="408"/>
      <point x="199" y="388"/>
      <point x="201" y="333" type="curve" smooth="yes"/>
      <point x="211" y="27" type="line"/>
      <point x="211" y="12"/>
      <point x="223" y="0"/>
    </contour>
  </outline>
</glyph>
<glyph name="samekh-hb" format="2">
  <advance width="656"/>
  <unicode hex="05E1"/>
  <guideline y="321"/>
  <guideline y="246"/>
  <guideline x="313"/>
  <guideline x="68" y="571" angle="0"/>
  <anchor x="310" y="0" name="bottom"/>
  <anchor x="20" y="0" name="bottomleft"/>
  <anchor x="324" y="260" name="center"/>
  <anchor x="310" y="520" name="top"/>
  <anchor x="20" y="520" name="topleft"/>
  <outline>
    <contour>
      <point x="330" y="-10" type="curve" smooth="yes"/>
      <point x="548" y="-10"/>
      <point x="619" y="90"/>
      <point x="627" y="241" type="curve" smooth="yes"/>
      <point x="628" y="261"/>
      <point x="628" y="306"/>
      <point x="627" y="326" type="curve" smooth="yes"/>
      <point x="619" y="472"/>
      <point x="549" y="571"/>
      <point x="334" y="571" type="curve"/>
      <point x="68" y="571" type="line" smooth="yes"/>
      <point x="53" y="571"/>
      <point x="41" y="559"/>
      <point x="41" y="544" type="curve" smooth="yes"/>
      <point x="41" y="242" type="line" smooth="yes"/>
      <point x="41" y="88"/>
      <point x="133" y="-10"/>
    </contour>
    <contour>
      <point x="329" y="175" type="curve" smooth="yes"/>
      <point x="280" y="175"/>
      <point x="243" y="191"/>
      <point x="243" y="246" type="curve" smooth="yes"/>
      <point x="243" y="396" type="line"/>
      <point x="329" y="396" type="line" smooth="yes"/>
      <point x="398" y="396"/>
      <point x="412" y="371"/>
      <point x="415" y="321" type="curve" smooth="yes"/>
      <point x="416" y="301"/>
      <point x="416" y="266"/>
      <point x="415" y="246" type="curve" smooth="yes"/>
      <point x="412" y="191"/>
      <point x="397" y="175"/>
    </contour>
  </outline>
</glyph>
<glyph name="finaltsadi-hb" format="2">
  <advance width="590"/>
  <unicode hex="05E5"/>
  <anchor x="295" y="0" name="bottom"/>
  <anchor x="20" y="0" name="bottomleft"/>
  <anchor x="295" y="260" name="center"/>
  <anchor x="295" y="520" name="top"/>
  <anchor x="20" y="520" name="topleft"/>
  <outline>
    <contour>
      <point x="291" y="-124" type="curve" smooth="yes"/>
      <point x="460" y="-124" type="line" smooth="yes"/>
      <point x="472" y="-124"/>
      <point x="482" y="-115"/>
      <point x="482" y="-103" type="curve" smooth="yes"/>
      <point x="482" y="-100"/>
      <point x="481" y="-97"/>
      <point x="479" y="-91" type="curve" smooth="yes"/>
      <point x="387" y="151" type="line"/>
      <point x="475" y="199"/>
      <point x="566" y="282"/>
      <point x="566" y="422" type="curve" smooth="yes"/>
      <point x="566" y="542" type="line" smooth="yes"/>
      <point x="566" y="557"/>
      <point x="554" y="571"/>
      <point x="539" y="571" type="curve" smooth="yes"/>
      <point x="390" y="571" type="line" smooth="yes"/>
      <point x="375" y="571"/>
      <point x="363" y="559"/>
      <point x="363" y="542" type="curve" smooth="yes"/>
      <point x="363" y="431" type="line" smooth="yes"/>
      <point x="363" y="381"/>
      <point x="339" y="354"/>
      <point x="317" y="337" type="curve"/>
      <point x="238" y="547" type="line"/>
      <point x="233" y="559"/>
      <point x="224" y="571"/>
      <point x="204" y="571" type="curve" smooth="yes"/>
      <point x="32" y="571" type="line" smooth="yes"/>
      <point x="20" y="571"/>
      <point x="9" y="561"/>
      <point x="9" y="550" type="curve" smooth="yes"/>
      <point x="9" y="547"/>
      <point x="9" y="545"/>
      <point x="11" y="539" type="curve" smooth="yes"/>
      <point x="256" y="-100" type="line" smooth="yes"/>
      <point x="261" y="-112"/>
      <point x="271" y="-124"/>
    </contour>
  </outline>
</glyph>
<glyph name="resh-hb" format="2">
  <advance width="562"/>
  <unicode hex="05E8"/>
  <guideline x="18" y="321" angle="0"/>
  <guideline x="232"/>
  <anchor x="403" y="0" name="bottom"/>
  <anchor x="38" y="0" name="bottomleft"/>
  <anchor x="181" y="260" name="center"/>
  <anchor x="290" y="520" name="top"/>
  <anchor x="38" y="520" name="topleft"/>
  <outline>
    <contour>
      <point x="325" y="0" type="curve" smooth="yes"/>
      <point x="494" y="0" type="line" smooth="yes"/>
      <point x="509" y="0"/>
      <point x="521" y="12"/>
      <point x="521" y="27" type="curve" smooth="yes"/>
      <point x="521" y="327" type="line" smooth="yes"/>
      <point x="521" y="516"/>
      <point x="415" y="571"/>
      <point x="230" y="571" type="curve" smooth="yes"/>
      <point x="57" y="571" type="line"/>
      <point x="42" y="571"/>
      <point x="30" y="559"/>
      <point x="30" y="544" type="curve" smooth="yes"/>
      <point x="30" y="423" type="line" smooth="yes"/>
      <point x="30" y="408"/>
      <point x="42" y="396"/>
      <point x="57" y="396" type="curve" smooth="yes"/>
      <point x="224" y="396" type="line" smooth="yes"/>
      <point x="273" y="396"/>
      <point x="298" y="371"/>
      <point x="298" y="321" type="curve" smooth="yes"/>
      <point x="298" y="26" type="line" smooth="yes"/>
      <point x="298" y="11"/>
      <point x="310" y="0"/>
    </contour>
  </outline>
</glyph>
<glyph name="quotesinglbase" format="2">
  <advance width="302"/>
  <unicode hex="201A"/>
  <guideline y="-75"/>
  <guideline y="228"/>
  <outline>
    <contour>
      <point x="39" y="-75" type="curve" smooth="yes"/>
      <point x="140" y="-75" type="line" smooth="yes"/>
      <point x="166" y="-75"/>
      <point x="178" y="-56"/>
      <point x="183" y="-43" type="curve" smooth="yes"/>
      <point x="278" y="199" type="line" smooth="yes"/>
      <point x="279" y="202"/>
      <point x="279" y="204"/>
      <point x="279" y="206" type="curve" smooth="yes"/>
      <point x="279" y="218"/>
      <point x="269" y="228"/>
      <point x="257" y="228" type="curve" smooth="yes"/>
      <point x="97" y="228" type="line" smooth="yes"/>
      <point x="70" y="228"/>
      <point x="57" y="207"/>
      <point x="54" y="189" type="curve" smooth="yes"/>
      <point x="17" y="-51" type="line" smooth="yes"/>
      <point x="15" y="-67"/>
      <point x="26" y="-75"/>
    </contour>
  </outline>
</glyph>
<glyph name="quotedblbase" format="2">
  <advance width="574"/>
  <unicode hex="201E"/>
  <guideline y="-75"/>
  <outline>
    <contour>
      <point x="311" y="-75" type="curve" smooth="yes"/>
      <point x="412" y="-75" type="line" smooth="yes"/>
      <point x="438" y="-75"/>
      <point x="450" y="-56"/>
      <point x="455" y="-43" type="curve" smooth="yes"/>
      <point x="550" y="199" type="line" smooth="yes"/>
      <point x="551" y="202"/>
      <point x="551" y="204"/>
      <point x="551" y="206" type="curve" smooth="yes"/>
      <point x="551" y="218"/>
      <point x="541" y="228"/>
      <point x="529" y="228" type="curve" smooth="yes"/>
      <point x="369" y="228" type="line" smooth="yes"/>
      <point x="342" y="228"/>
      <point x="329" y="207"/>
      <point x="326" y="189" type="curve"/>
      <point x="289" y="-53" type="line" smooth="yes"/>
      <point x="287" y="-65"/>
      <point x="299" y="-75"/>
    </contour>
    <contour>
      <point x="39" y="-75" type="curve" smooth="yes"/>
      <point x="140" y="-75" type="line" smooth="yes"/>
      <point x="166" y="-75"/>
      <point x="178" y="-56"/>
      <point x="183" y="-43" type="curve" smooth="yes"/>
      <point x="278" y="199" type="line" smooth="yes"/>
      <point x="279" y="202"/>
      <point x="279" y="204"/>
      <point x="279" y="206" type="curve" smooth="yes"/>
      <point x="279" y="218"/>
      <point x="269" y="228"/>
      <point x="257" y="228" type="curve" smooth="yes"/>
      <point x="97" y="228" type="line" smooth="yes"/>
      <point x="70" y="228"/>
      <point x="57" y="207"/>
      <point x="54" y="189" type="curve" smooth="yes"/>
      <point x="17" y="-51" type="line" smooth="yes"/>
      <point x="15" y="-65"/>
      <point x="27" y="-75"/>
    </contour>
  </outline>
</glyph>
<glyph name="bullet" format="2">
  <advance width="388"/>
  <unicode hex="2022"/>
  <guideline y="350"/>
  <guideline x="170"/>
  <outline>
    <contour>
      <point x="194" y="210" type="curve" smooth="yes"/>
      <point x="271" y="210"/>
      <point x="334" y="273"/>
      <point x="334" y="350" type="curve" smooth="yes"/>
      <point x="334" y="427"/>
      <point x="271" y="490"/>
      <point x="194" y="490" type="curve" smooth="yes"/>
      <point x="117" y="490"/>
      <point x="54" y="427"/>
      <point x="54" y="350" type="curve" smooth="yes"/>
      <point x="54" y="273"/>
      <point x="117" y="210"/>
    </contour>
  </outline>
</glyph>
<glyph name="parenrightinferior" format="2">
  <advance width="261"/>
  <unicode hex="208E"/>
  <guideline y="245"/>
  <outline>
    <contour>
      <point x="49" y="-225" type="curve" smooth="yes"/>
      <point x="122" y="-225"/>
      <point x="237" y="-178"/>
      <point x="237" y="10" type="curve" smooth="yes"/>
      <point x="237" y="198"/>
      <point x="122" y="245"/>
      <point x="49" y="245" type="curve" smooth="yes"/>
      <point x="34" y="245"/>
      <point x="25" y="238"/>
      <point x="25" y="223" type="curve" smooth="yes"/>
      <point x="25" y="155" type="line" smooth="yes"/>
      <point x="25" y="140"/>
      <point x="38" y="137"/>
      <point x="52" y="134" type="curve" smooth="yes"/>
      <point x="99" y="123"/>
      <point x="117" y="82"/>
      <point x="117" y="10" type="curve" smooth="yes"/>
      <point x="117" y="-62"/>
      <point x="99" y="-103"/>
      <point x="52" y="-114" type="curve" smooth="yes"/>
      <point x="38" y="-117"/>
      <point x="25" y="-120"/>
      <point x="25" y="-135" type="curve" smooth="yes"/>
      <point x="25" y="-203" type="line" smooth="yes"/>
      <point x="25" y="-218"/>
      <point x="34" y="-225"/>
    </contour>
  </outline>
</glyph>
<glyph name="euro" format="2">
  <advance width="820"/>
  <unicode hex="20AC"/>
  <outline>
    <contour>
      <point x="446" y="-10" type="curve" smooth="yes"/>
      <point x="626" y="-10"/>
      <point x="784" y="74"/>
      <point x="784" y="236" type="curve" smooth="yes"/>
      <point x="784" y="248"/>
      <point x="774" y="258"/>
      <point x="762" y="258" type="curve" smooth="yes"/>
      <point x="558" y="258" type="line" smooth="yes"/>
      <point x="536" y="258"/>
      <point x="526" y="251"/>
      <point x="517" y="229" type="curve" smooth="yes"/>
      <point x="504" y="197"/>
      <point x="480" y="185"/>
      <point x="446" y="185" type="curve" smooth="yes"/>
      <point x="396" y="185"/>
      <point x="366" y="210"/>
      <point x="373" y="291" type="curve"/>
      <point x="373" y="411" type="line"/>
      <point x="367" y="491"/>
      <point x="396" y="515"/>
      <point x="446" y="515" type="curve" smooth="yes"/>
      <point x="480" y="515"/>
      <point x="504" y="503"/>
      <point x="517" y="471" type="curve" smooth="yes"/>
      <point x="526" y="449"/>
      <point x="536" y="442"/>
      <point x="558" y="442" type="curve" smooth="yes"/>
      <point x="762" y="442" type="line" smooth="yes"/>
      <point x="774" y="442"/>
      <point x="784" y="452"/>
      <point x="784" y="464" type="curve" smooth="yes"/>
      <point x="784" y="626"/>
      <point x="626" y="710"/>
      <point x="446" y="710" type="curve" smooth="yes"/>
      <point x="248" y="710"/>
      <point x="107" y="627"/>
      <point x="112" y="417" type="curve" smooth="yes"/>
      <point x="112" y="284" type="line"/>
      <point x="104" y="74"/>
      <point x="248" y="-10"/>
    </contour>
    <contour>
      <point x="52" y="188" type="curve" smooth="yes"/>
      <point x="464" y="188" type="line" smooth="yes"/>
      <point x="479" y="188"/>
      <point x="491" y="200"/>
      <point x="491" y="215" type="curve" smooth="yes"/>
      <point x="491" y="331" type="line" smooth="yes"/>
      <point x="491" y="346"/>
      <point x="479" y="358"/>
      <point x="464" y="358" type="curve" smooth="yes"/>
      <point x="52" y="358" type="line" smooth="yes"/>
      <point x="37" y="358"/>
      <point x="25" y="346"/>
      <point x="25" y="331" type="curve" smooth="yes"/>
      <point x="25" y="215" type="line" smooth="yes"/>
      <point x="25" y="200"/>
      <point x="37" y="188"/>
    </contour>
    <contour>
      <point x="52" y="338" type="curve" smooth="yes"/>
      <point x="464" y="338" type="line" smooth="yes"/>
      <point x="479" y="338"/>
      <point x="491" y="350"/>
      <point x="491" y="365" type="curve" smooth="yes"/>
      <point x="491" y="481" type="line" smooth="yes"/>
      <point x="491" y="496"/>
      <point x="479" y="508"/>
      <point x="464" y="508" type="curve" smooth="yes"/>
      <point x="52" y="508" type="line" smooth="yes"/>
      <point x="37" y="508"/>
      <point x="25" y="496"/>
      <point x="25" y="481" type="curve" smooth="yes"/>
      <point x="25" y="365" type="line" smooth="yes"/>
      <point x="25" y="350"/>
      <point x="37" y="338"/>
    </contour>
  </outline>
</glyph>
<glyph name="tugrik" format="2">
  <advance width="674"/>
  <unicode hex="20AE"/>
  <outline>
    <contour>
      <point x="237" y="0" type="curve" smooth="yes"/>
      <point x="437" y="0" type="line" smooth="yes"/>
      <point x="452" y="0"/>
      <point x="464" y="12"/>
      <point x="464" y="27" type="curve" smooth="yes"/>
      <point x="464" y="485" type="line"/>
      <point x="630" y="485" type="line" smooth="yes"/>
      <point x="645" y="485"/>
      <point x="657" y="497"/>
      <point x="657" y="512" type="curve" smooth="yes"/>
      <point x="657" y="673" type="line" smooth="yes"/>
      <point x="657" y="688"/>
      <point x="645" y="700"/>
      <point x="630" y="700" type="curve" smooth="yes"/>
      <point x="44" y="700" type="line" smooth="yes"/>
      <point x="29" y="700"/>
      <point x="17" y="688"/>
      <point x="17" y="673" type="curve" smooth="yes"/>
      <point x="17" y="512" type="line" smooth="yes"/>
      <point x="17" y="497"/>
      <point x="29" y="485"/>
      <point x="44" y="485" type="curve" smooth="yes"/>
      <point x="210" y="485" type="line"/>
      <point x="210" y="27" type="line" smooth="yes"/>
      <point x="210" y="12"/>
      <point x="222" y="0"/>
    </contour>
    <contour>
      <point x="134" y="277" type="curve" smooth="yes"/>
      <point x="540" y="307" type="line" smooth="yes"/>
      <point x="555" y="308"/>
      <point x="567" y="319"/>
      <point x="567" y="334" type="curve" smooth="yes"/>
      <point x="567" y="402" type="line" smooth="yes"/>
      <point x="567" y="417"/>
      <point x="555" y="430"/>
      <point x="540" y="429" type="curve" smooth="yes"/>
      <point x="134" y="399" type="line" smooth="yes"/>
      <point x="119" y="398"/>
      <point x="107" y="387"/>
      <point x="107" y="372" type="curve" smooth="yes"/>
      <point x="107" y="304" type="line" smooth="yes"/>
      <point x="107" y="289"/>
      <point x="119" y="276"/>
    </contour>
    <contour>
      <point x="134" y="107" type="curve" smooth="yes"/>
      <point x="540" y="137" type="line" smooth="yes"/>
      <point x="555" y="138"/>
      <point x="567" y="149"/>
      <point x="567" y="164" type="curve" smooth="yes"/>
      <point x="567" y="232" type="line" smooth="yes"/>
      <point x="567" y="247"/>
      <point x="555" y="260"/>
      <point x="540" y="259" type="curve" smooth="yes"/>
      <point x="134" y="229" type="line" smooth="yes"/>
      <point x="119" y="228"/>
      <point x="107" y="217"/>
      <point x="107" y="202" type="curve" smooth="yes"/>
      <point x="107" y="134" type="line" smooth="yes"/>
      <point x="107" y="119"/>
      <point x="119" y="106"/>
    </contour>
  </outline>
</glyph>
<glyph name="lessequal" format="2">
  <advance width="556"/>
  <unicode hex="2264"/>
  <guideline y="686"/>
  <guideline y="440"/>
  <guideline y="499"/>
  <outline>
    <contour>
      <point x="481" y="194" type="curve" smooth="yes"/>
      <point x="493" y="194"/>
      <point x="502" y="203"/>
      <point x="502" y="215" type="curve" smooth="yes"/>
      <point x="502" y="337" type="line" smooth="yes"/>
      <point x="502" y="363"/>
      <point x="483" y="375"/>
      <point x="470" y="380" type="curve" smooth="yes"/>
      <point x="295" y="440" type="line"/>
      <point x="470" y="499" type="line" smooth="yes"/>
      <point x="483" y="503"/>
      <point x="502" y="517"/>
      <point x="502" y="543" type="curve" smooth="yes"/>
      <point x="502" y="665" type="line" smooth="yes"/>
      <point x="502" y="677"/>
      <point x="493" y="686"/>
      <point x="481" y="686" type="curve" smooth="yes"/>
      <point x="479" y="686"/>
      <point x="475" y="685"/>
      <point x="470" y="683" type="curve" smooth="yes"/>
      <point x="70" y="503" type="line" smooth="yes"/>
      <point x="50" y="494"/>
      <point x="41" y="482"/>
      <point x="41" y="461" type="curve"/>
      <point x="41" y="419" type="line" smooth="yes"/>
      <point x="41" y="398"/>
      <point x="50" y="386"/>
      <point x="70" y="377" type="curve" smooth="yes"/>
      <point x="470" y="197" type="line" smooth="yes"/>
      <point x="475" y="195"/>
      <point x="479" y="194"/>
    </contour>
    <contour>
      <point x="68" y="0" type="curve" smooth="yes"/>
      <point x="475" y="0" type="line" smooth="yes"/>
      <point x="490" y="0"/>
      <point x="502" y="12"/>
      <point x="502" y="27" type="curve" smooth="yes"/>
      <point x="502" y="136" type="line" smooth="yes"/>
      <point x="502" y="151"/>
      <point x="490" y="163"/>
      <point x="475" y="163" type="curve"/>
      <point x="68" y="163" type="line" smooth="yes"/>
      <point x="53" y="163"/>
      <point x="41" y="151"/>
      <point x="41" y="136" type="curve" smooth="yes"/>
      <point x="41" y="27" type="line" smooth="yes"/>
      <point x="41" y="12"/>
      <point x="53" y="0"/>
    </contour>
  </outline>
</glyph>
<glyph name="brevecomb-cy" format="2">
  <anchor x="297" y="520" name="_top"/>
  <outline>
    <contour>
      <point x="297" y="586" type="curve" smooth="yes"/>
      <point x="431" y="586"/>
      <point x="494" y="654"/>
      <point x="494" y="746" type="curve" smooth="yes"/>
      <point x="494" y="756"/>
      <point x="487" y="765"/>
      <point x="475" y="765" type="curve" smooth="yes"/>
      <point x="356" y="765" type="line" smooth="yes"/>
      <point x="344" y="765"/>
      <point x="337" y="756"/>
      <point x="337" y="746" type="curve" smooth="yes"/>
      <point x="337" y="721"/>
      <point x="329" y="701"/>
      <point x="297" y="701" type="curve" smooth="yes"/>
      <point x="265" y="701"/>
      <point x="257" y="721"/>
      <point x="257" y="746" type="curve" smooth="yes"/>
      <point x="257" y="756"/>
      <point x="250" y="765"/>
      <point x="238" y="765" type="curve" smooth="yes"/>
      <point x="119" y="765" type="line" smooth="yes"/>
      <point x="106" y="765"/>
      <point x="100" y="756"/>
      <point x="100" y="746" type="curve" smooth="yes"/>
      <point x="100" y="654"/>
      <point x="163" y="586"/>
    </contour>
  </outline>
</glyph>
<glyph name="divide.case" format="2">
  <advance width="521"/>
  <guideline y="300"/>
  <guideline x="269"/>
  <outline>
    <contour>
      <point x="58" y="265" type="curve" smooth="yes"/>
      <point x="463" y="265" type="line" smooth="yes"/>
      <point x="478" y="265"/>
      <point x="490" y="277"/>
      <point x="490" y="292" type="curve" smooth="yes"/>
      <point x="490" y="408" type="line" smooth="yes"/>
      <point x="490" y="423"/>
      <point x="478" y="435"/>
      <point x="463" y="435" type="curve" smooth="yes"/>
      <point x="58" y="435" type="line" smooth="yes"/>
      <point x="43" y="435"/>
      <point x="31" y="423"/>
      <point x="31" y="408" type="curve" smooth="yes"/>
      <point x="31" y="292" type="line" smooth="yes"/>
      <point x="31" y="277"/>
      <point x="43" y="265"/>
    </contour>
    <contour>
      <point x="198" y="74" type="curve" smooth="yes"/>
      <point x="322" y="74" type="line" smooth="yes"/>
      <point x="337" y="74"/>
      <point x="349" y="86"/>
      <point x="349" y="101" type="curve" smooth="yes"/>
      <point x="349" y="215" type="line" smooth="yes"/>
      <point x="349" y="230"/>
      <point x="337" y="242"/>
      <point x="322" y="242" type="curve" smooth="yes"/>
      <point x="198" y="242" type="line" smooth="yes"/>
      <point x="183" y="242"/>
      <point x="171" y="230"/>
      <point x="171" y="215" type="curve" smooth="yes"/>
      <point x="171" y="101" type="line" smooth="yes"/>
      <point x="171" y="86"/>
      <point x="183" y="74"/>
    </contour>
    <contour>
      <point x="198" y="458" type="curve" smooth="yes"/>
      <point x="322" y="458" type="line" smooth="yes"/>
      <point x="337" y="458"/>
      <point x="349" y="470"/>
      <point x="349" y="485" type="curve" smooth="yes"/>
      <point x="349" y="599" type="line" smooth="yes"/>
      <point x="349" y="614"/>
      <point x="337" y="626"/>
      <point x="322" y="626" type="curve" smooth="yes"/>
      <point x="198" y="626" type="line" smooth="yes"/>
      <point x="183" y="626"/>
      <point x="171" y="614"/>
      <point x="171" y="599" type="curve" smooth="yes"/>
      <point x="171" y="485" type="line" smooth="yes"/>
      <point x="171" y="470"/>
      <point x="183" y="458"/>
    </contour>
  </outline>
</glyph>
<glyph name="endash.case" format="2">
  <advance width="573"/>
  <guideline y="300"/>
  <outline>
    <contour>
      <point x="79" y="252" type="curve" smooth="yes"/>
      <point x="494" y="252" type="line" smooth="yes"/>
      <point x="509" y="252"/>
      <point x="521" y="264"/>
      <point x="521" y="279" type="curve" smooth="yes"/>
      <point x="521" y="421" type="line" smooth="yes"/>
      <point x="521" y="436"/>
      <point x="509" y="448"/>
      <point x="494" y="448" type="curve" smooth="yes"/>
      <point x="79" y="448" type="line" smooth="yes"/>
      <point x="64" y="448"/>
      <point x="52" y="436"/>
      <point x="52" y="421" type="curve" smooth="yes"/>
      <point x="52" y="279" type="line" smooth="yes"/>
      <point x="52" y="264"/>
      <point x="64" y="252"/>
    </contour>
  </outline>
</glyph>
<glyph name="guilsinglright.case" format="2">
  <advance width="347"/>
  <outline>
    <contour>
      <point x="77" y="73" type="curve" smooth="yes"/>
      <point x="78" y="73"/>
      <point x="85" y="73"/>
      <point x="91" y="78" type="curve" smooth="yes"/>
      <point x="308" y="289" type="line" smooth="yes"/>
      <point x="316" y="296"/>
      <point x="322" y="305"/>
      <point x="322" y="317" type="curve" smooth="yes"/>
      <point x="322" y="383" type="line" smooth="yes"/>
      <point x="322" y="395"/>
      <point x="316" y="404"/>
      <point x="308" y="411" type="curve" smooth="yes"/>
      <point x="91" y="622" type="line" smooth="yes"/>
      <point x="85" y="627"/>
      <point x="78" y="627"/>
      <point x="77" y="627" type="curve" smooth="yes"/>
      <point x="65" y="627"/>
      <point x="55" y="617"/>
      <point x="55" y="605" type="curve" smooth="yes"/>
      <point x="55" y="464" type="line" smooth="yes"/>
      <point x="55" y="441"/>
      <point x="60" y="432"/>
      <point x="73" y="419" type="curve" smooth="yes"/>
      <point x="142" y="350" type="line"/>
      <point x="73" y="281" type="line" smooth="yes"/>
      <point x="60" y="268"/>
      <point x="55" y="259"/>
      <point x="55" y="236" type="curve" smooth="yes"/>
      <point x="55" y="95" type="line" smooth="yes"/>
      <point x="55" y="83"/>
      <point x="65" y="73"/>
    </contour>
  </outline>
</glyph>
<glyph name="hungarumlautcomb.case" format="2">
  <guideline y="750"/>
  <guideline y="920"/>
  <guideline y="880"/>
  <guideline y="910"/>
  <guideline y="900"/>
  <guideline y="890"/>
  <anchor x="239" y="700" name="_top"/>
  <anchor x="309" y="920" name="top"/>
  <outline>
    <contour>
      <point x="311" y="750" type="curve" smooth="yes"/>
      <point x="414" y="750" type="line" smooth="yes"/>
      <point x="427" y="750"/>
      <point x="440" y="755"/>
      <point x="448" y="764" type="curve" smooth="yes"/>
      <point x="562" y="888" type="line" smooth="yes"/>
      <point x="565" y="891"/>
      <point x="568" y="896"/>
      <point x="568" y="901" type="curve" smooth="yes"/>
      <point x="568" y="913"/>
      <point x="560" y="920"/>
      <point x="548" y="920" type="curve" smooth="yes"/>
      <point x="391" y="920" type="line" smooth="yes"/>
      <point x="370" y="920"/>
      <point x="360" y="914"/>
      <point x="354" y="901" type="curve" smooth="yes"/>
      <point x="300" y="781" type="line" smooth="yes"/>
      <point x="298" y="777"/>
      <point x="295" y="771"/>
      <point x="295" y="766" type="curve" smooth="yes"/>
      <point x="295" y="756"/>
      <point x="301" y="750"/>
    </contour>
    <contour>
      <point x="66" y="750" type="curve" smooth="yes"/>
      <point x="169" y="750" type="line" smooth="yes"/>
      <point x="182" y="750"/>
      <point x="195" y="755"/>
      <point x="203" y="764" type="curve" smooth="yes"/>
      <point x="317" y="888" type="line" smooth="yes"/>
      <point x="320" y="891"/>
      <point x="323" y="896"/>
      <point x="323" y="901" type="curve" smooth="yes"/>
      <point x="323" y="913"/>
      <point x="315" y="920"/>
      <point x="303" y="920" type="curve" smooth="yes"/>
      <point x="146" y="920" type="line" smooth="yes"/>
      <point x="125" y="920"/>
      <point x="115" y="914"/>
      <point x="109" y="901" type="curve" smooth="yes"/>
      <point x="55" y="781" type="line" smooth="yes"/>
      <point x="53" y="777"/>
      <point x="50" y="771"/>
      <point x="50" y="766" type="curve" smooth="yes"/>
      <point x="50" y="756"/>
      <point x="56" y="750"/>
    </contour>
  </outline>
</glyph>
<glyph name="ringcomb.case" format="2">
  <guideline y="740"/>
  <guideline y="940"/>
  <guideline y="986"/>
  <guideline y="840"/>
  <guideline x="150"/>
  <guideline x="120"/>
  <guideline x="50"/>
  <guideline x="55"/>
  <guideline x="60"/>
  <guideline x="65"/>
  <guideline x="70"/>
  <anchor x="150" y="700" name="_top"/>
  <anchor x="150" y="930" name="top"/>
  <outline>
    <contour>
      <point x="150" y="740" type="curve" smooth="yes"/>
      <point x="205" y="740"/>
      <point x="250" y="780"/>
      <point x="250" y="835" type="curve" smooth="yes"/>
      <point x="250" y="890"/>
      <point x="205" y="930"/>
      <point x="150" y="930" type="curve" smooth="yes"/>
      <point x="95" y="930"/>
      <point x="50" y="890"/>
      <point x="50" y="835" type="curve" smooth="yes"/>
      <point x="50" y="780"/>
      <point x="95" y="740"/>
    </contour>
    <contour>
      <point x="150" y="805" type="curve" smooth="yes"/>
      <point x="133" y="805"/>
      <point x="120" y="818"/>
      <point x="120" y="835" type="curve" smooth="yes"/>
      <point x="120" y="852"/>
      <point x="133" y="865"/>
      <point x="150" y="865" type="curve" smooth="yes"/>
      <point x="167" y="865"/>
      <point x="180" y="852"/>
      <point x="180" y="835" type="curve" smooth="yes"/>
      <point x="180" y="818"/>
      <point x="167" y="805"/>
    </contour>
  </outline>
</glyph>
<glyph name="six.otlf" format="2">
  <advance width="700"/>
  <guideline y="253"/>
  <guideline x="352"/>
  <outline>
    <contour>
      <point x="354" y="-10" type="curve" smooth="yes"/>
      <point x="542" y="-10"/>
      <point x="675" y="103"/>
      <point x="675" y="254" type="curve" smooth="yes"/>
      <point x="675" y="414"/>
      <point x="513" y="493"/>
      <point x="416" y="498" type="curve"/>
      <point x="418" y="501"/>
      <point x="421" y="504"/>
      <point x="423" y="507" type="curve"/>
      <point x="542" y="665" type="line" smooth="yes"/>
      <point x="544" y="668"/>
      <point x="546" y="672"/>
      <point x="546" y="678" type="curve" smooth="yes"/>
      <point x="546" y="690"/>
      <point x="536" y="700"/>
      <point x="524" y="700" type="curve" smooth="yes"/>
      <point x="323" y="700" type="line" smooth="yes"/>
      <point x="301" y="700"/>
      <point x="289" y="687"/>
      <point x="284" y="680" type="curve" smooth="yes"/>
      <point x="121" y="467" type="line" smooth="yes"/>
      <point x="94" y="432"/>
      <point x="24" y="335"/>
      <point x="24" y="249" type="curve" smooth="yes"/>
      <point x="24" y="84"/>
      <point x="166" y="-10"/>
    </contour>
    <contour>
      <point x="351" y="185" type="curve" smooth="yes"/>
      <point x="313" y="185"/>
      <point x="282" y="208"/>
      <point x="282" y="250" type="curve" smooth="yes"/>
      <point x="282" y="292"/>
      <point x="312" y="315"/>
      <point x="351" y="315" type="curve" smooth="yes"/>
      <point x="390" y="315"/>
      <point x="420" y="292"/>
      <point x="420" y="250" type="curve" smooth="yes"/>
      <point x="420" y="208"/>
      <point x="389" y="185"/>
    </contour>
  </outline>
</glyph>
<glyph name="zero.otlf" format="2">
  <advance width="700"/>
  <guideline y="251"/>
  <outline>
    <contour>
      <point x="349" y="-10" type="curve"/>
      <point x="550" y="-9"/>
      <point x="652" y="99"/>
      <point x="663" y="246" type="curve" smooth="yes"/>
      <point x="667" y="300"/>
      <point x="667" y="401"/>
      <point x="663" y="458" type="curve" smooth="yes"/>
      <point x="653" y="604"/>
      <point x="540" y="709"/>
      <point x="349" y="710" type="curve"/>
      <point x="158" y="709"/>
      <point x="45" y="604"/>
      <point x="35" y="458" type="curve" smooth="yes"/>
      <point x="31" y="401"/>
      <point x="31" y="300"/>
      <point x="35" y="246" type="curve" smooth="yes"/>
      <point x="46" y="99"/>
      <point x="148" y="-9"/>
    </contour>
    <contour>
      <point x="349" y="186" type="curve" smooth="yes"/>
      <point x="311" y="186"/>
      <point x="297" y="214"/>
      <point x="295" y="251" type="curve" smooth="yes"/>
      <point x="292" y="308"/>
      <point x="292" y="397"/>
      <point x="295" y="452" type="curve" smooth="yes"/>
      <point x="297" y="486"/>
      <point x="309" y="516"/>
      <point x="349" y="517" type="curve"/>
      <point x="389" y="516"/>
      <point x="401" y="486"/>
      <point x="403" y="452" type="curve" smooth="yes"/>
      <point x="406" y="397"/>
      <point x="406" y="308"/>
      <point x="403" y="251" type="curve" smooth="yes"/>
      <point x="401" y="214"/>
      <point x="387" y="186"/>
    </contour>
  </outline>
</glyph>
